<?xml version="1.0" encoding="UTF-8"?>
<svg id="Layer_1" xmlns="http://www.w3.org/2000/svg" xmlns:xlink="http://www.w3.org/1999/xlink" version="1.1" viewBox="0 0 100 100">
  <!-- Generator: Adobe Illustrator 29.8.2, SVG Export Plug-In . SVG Version: 2.1.1 Build 3)  -->
  <defs>
    <style>
      .st0 {
        fill: none;
      }

      .st1 {
        fill: #6c2b46;
      }

      .st2 {
        fill: #2e602b;
      }

      .st3 {
        fill: #606060;
      }

      .st4 {
        fill: #fff;
      }

      .st5 {
        fill: #480d29;
      }

      .st6 {
        fill: #407839;
      }

      .st7 {
        clip-path: url(#clippath);
      }

      .st8 {
        fill: #76c043;
      }
    </style>
    <clipPath id="clippath">
      <path class="st0" d="M35.82,65.27c-1.82,1.1-2.76-4.65-1.37-6.95,3.44-5.66,8.84-2.19,16.34-1.6s14.72-.94,17.78,3.91c1.38,2.19.11,6.1-1.7,5.21-3.46-1.71-9.39-.57-14.87-.98-5.48-.41-12.34-1.91-16.18.41Z"/>
    </clipPath>
  </defs>
  <rect class="st6" width="100" height="100" rx="6.34" ry="6.34"/>
  <g>
    <path class="st2" d="M6.34,0C2.84,0,0,2.84,0,6.34v87.32L50,0H6.34Z"/>
    <path class="st2" d="M93.66,0h-43.66l50,93.66V6.34c0-3.5-2.84-6.34-6.34-6.34Z"/>
  </g>
  <path class="st8" d="M85.4,0H14.62c-3.5,0-6.34,2.84-6.34,6.34l5,60.76c0,3.5,2.84,6.34,6.34,6.34h60.77c3.5,0,6.34-2.84,6.34-6.34l5-60.76C91.73,2.84,88.89,0,85.39,0h.01Z"/>
  <circle class="st5" cx="29.71" cy="25.09" r="14.26"/>
  <circle class="st5" cx="72.96" cy="30.95" r="9.03"/>
  <circle class="st2" cx="21.55" cy="29.27" r="1.15"/>
  <circle class="st4" cx="28.6" cy="29.27" r="14.26"/>
  <circle class="st2" cx="20.44" cy="33.45" r="1.15"/>
  <circle class="st3" cx="49.36" cy="45.52" r="1.31"/>
  <circle class="st3" cx="53.95" cy="45.52" r="2.06"/>
  <g>
    <path class="st5" d="M35.82,65.27c-1.82,1.1-2.76-4.65-1.37-6.95,3.44-5.66,8.84-2.19,16.34-1.6s14.72-.94,17.78,3.91c1.38,2.19.11,6.1-1.7,5.21-3.46-1.71-9.39-.57-14.87-.98-5.48-.41-12.34-1.91-16.18.41Z"/>
    <g class="st7">
      <g>
        <rect class="st4" x="59.43" y="63.02" width="3.56" height="5.62" rx=".84" ry=".84" transform="translate(122.43 131.67) rotate(180)"/>
        <rect class="st4" x="40.11" y="54.55" width="3.09" height="5.78" rx=".84" ry=".84" transform="translate(83.3 114.88) rotate(180)"/>
        <rect class="st4" x="40.11" y="63.5" width="4.28" height="5.15" rx=".84" ry=".84" transform="translate(84.49 132.15) rotate(180)"/>
      </g>
    </g>
  </g>
  <path class="st2" d="M83.47,23.11c-8.81-10.63-10.27-10.77-20.9-1.95,10.63-8.81,10.77-10.27,1.95-20.9,8.81,10.63,10.27,10.77,20.9,1.95-10.63,8.81-10.77,10.27-1.95,20.9Z"/>
  <path class="st2" d="M19.14,60.81c6.41-6.41,6.41-7.37,0-13.78,6.41,6.41,7.37,6.41,13.78,0-6.41,6.41-6.41,7.37,0,13.78-6.41-6.41-7.37-6.41-13.78,0Z"/>
  <path class="st2" d="M73,62.24c4.01-2.17,4.15-2.63,1.98-6.64,2.17,4.01,2.63,4.15,6.64,1.98-4.01,2.17-4.15,2.63-1.98,6.64-2.17-4.01-2.63-4.15-6.64-1.98Z"/>
  <polygon class="st1" points="72.52 29.27 72.96 39.98 79.61 37.83 72.52 29.27"/>
  <circle class="st4" cx="76.91" cy="43.46" r="9.03"/>
  <circle class="st2" cx="83.12" cy="42.93" r="1.15"/>
</svg>