<?xml version="1.0" encoding="UTF-8"?>
<svg id="Layer_1" xmlns="http://www.w3.org/2000/svg" version="1.1" viewBox="0 0 100 100">
  <!-- Generator: Adobe Illustrator 29.8.2, SVG Export Plug-In . SVG Version: 2.1.1 Build 3)  -->
  <defs>
    <style>
      .st0 {
        fill: #231f20;
      }

      .st1, .st2 {
        fill: none;
        stroke: #fff;
        stroke-miterlimit: 10;
      }

      .st3 {
        fill: #72737a;
      }

      .st4 {
        fill: #31373c;
      }

      .st2 {
        stroke-width: .5px;
      }

      .st5 {
        fill: #fff;
      }

      .st6 {
        fill: #1d2226;
      }

      .st7 {
        fill: #454c51;
      }

      .st8 {
        fill: #dc2826;
      }
    </style>
  </defs>
  <rect class="st7" width="100" height="100" rx="6.34" ry="6.34"/>
  <g>
    <path class="st4" d="M6.34,0C2.84,0,0,2.84,0,6.34v87.32L50,0H6.34Z"/>
    <path class="st4" d="M93.66,0h-43.66l50,93.66V6.34c0-3.5-2.84-6.34-6.34-6.34Z"/>
  </g>
  <path class="st3" d="M85.4,0H14.62c-3.5,0-6.34,2.84-6.34,6.34l5,60.76c0,3.5,2.84,6.34,6.34,6.34h60.77c3.5,0,6.34-2.84,6.34-6.34l5-60.76c0-3.5-2.84-6.34-6.34-6.34h.01Z"/>
  <polygon class="st4" points="22.09 64.44 17.53 9 82.48 9 77.92 64.44 22.09 64.44"/>
  <polygon class="st7" points="32.09 64.44 17.53 9 82.48 9 67.92 64.44 32.09 64.44"/>
  <polygon class="st6" points="28.09 64.44 27.06 45.28 73.1 44.73 71.92 64.44 28.09 64.44"/>
  <path class="st5" d="M35.71,16.23c4.01,4.57,10.11,6.97,17.83,6.97,5.19,0,9.96-1.05,12.86-1.85-.77,1.53-.99,3.1-.67,4.71.9,4.46,5.92,7.89,8.86,9.55-1.25.66-2.19,1.63-2.82,2.9-2.17,4.43.29,11.36,1.61,14.46-.06,0-.12,0-.18,0-6.6,0-9.31,4.96-10.11,8.95-2.32-2.45-5.32-3.69-8.93-3.69-5.46,0-10.87,2.86-13.43,4.42-1.07-6.14-9.95-9.31-13.8-10.4,1.24-1.48,1.95-3.24,2.11-5.26.47-5.84-3.83-12.26-5.92-15.01,10.23-2.14,12.25-10.96,12.57-15.75M34.72,13.21s1.78,16.16-13.43,18.06c0,0,12.41,14.26,3.71,21.5,0,0,15.54,3.37,14.83,11.66,0,0,7.23-5.22,14.35-5.22,3.56,0,7.08,1.3,9.65,5.22,0,0,.12-10.48,9.39-10.48.56,0,1.16.04,1.79.12,0,0-8.2-16.28,2.13-18.3,0,0-16.51-7.37-8.2-16.28,0,0-7.23,2.69-15.39,2.69-6.88,0-14.43-1.92-18.83-8.99h0Z"/>
  <path class="st5" d="M40.23,24.09c2.8,2.85,6.88,4.34,11.95,4.34,3.23,0,6.23-.59,8.26-1.11-.34.92-.41,1.86-.22,2.82.6,2.94,3.68,5.23,5.76,6.48-.68.46-1.22,1.08-1.59,1.85-1.44,2.95-.02,7.41.92,9.73-4.18.16-6.07,3.16-6.76,5.82-1.59-1.47-3.58-2.22-5.94-2.22-3.56,0-7.09,1.74-8.99,2.85-1.03-3.86-6.36-5.96-9.13-6.8.71-.98,1.12-2.12,1.23-3.41.31-3.85-2.3-8.02-3.83-10.11,4.69-1.16,6.74-4.39,7.65-7.04.39-1.14.59-2.25.69-3.2M39.28,21.28s1.22,11.07-9.2,12.37c0,0,8.5,9.77,2.54,14.73,0,0,10.65,2.31,10.16,7.99,0,0,4.96-3.58,9.83-3.58,2.44,0,4.85.89,6.61,3.58,0,0,.08-7.18,6.43-7.18.38,0,.79.03,1.22.08,0,0-5.62-11.15,1.46-12.54,0,0-11.31-5.05-5.62-11.15,0,0-4.95,1.84-10.54,1.84-4.72,0-9.88-1.31-12.9-6.16h0Z"/>
  <path class="st5" d="M44.64,31.69c1.57,1.26,3.67,1.91,6.2,1.91,1.46,0,2.83-.21,3.91-.45-.04.38-.02.73.04,1.02.31,1.54,1.68,2.75,2.83,3.51-.23.25-.4.51-.52.75-.76,1.56-.24,3.71.27,5.13-1.81.29-2.8,1.54-3.29,2.81-.85-.6-1.87-.9-3.01-.9-1.77,0-3.52.74-4.66,1.35-.8-1.76-3.02-2.79-4.55-3.32.24-.47.39-1,.43-1.57.16-1.95-.95-4.01-1.81-5.3,2.6-.89,3.75-3,4.16-4.94M43.78,29.23s.67,6.05-5.03,6.76c0,0,4.65,5.34,1.39,8.05,0,0,5.82,1.26,5.55,4.37,0,0,2.71-1.95,5.37-1.95,1.33,0,2.65.49,3.62,1.95,0,0,.04-3.92,3.52-3.92.21,0,.43.01.67.04,0,0-3.07-6.1.8-6.85,0,0-6.18-2.76-3.07-6.1,0,0-2.71,1.01-5.76,1.01-2.58,0-5.4-.72-7.05-3.37h0Z"/>
  <polyline class="st1" points="33.65 11.79 50 39.47 73.1 14.87"/>
  <polyline class="st1" points="25 52.78 50 39.47 21.29 31.27"/>
  <polyline class="st1" points="63.83 64.44 50 39.47 39.83 64.44"/>
  <polyline class="st1" points="77.13 35.79 50 39.47 75 54.08"/>
  <g>
    <path class="st0" d="M85.09,31.19c-1.19.58-2.32,1.24-3.41,1.94-3.04,1.94-6.86,5.27-8.84,7.35-1.8-.98-3.58-2.01-5.46-2.8.5-.61.95-1.24,1.33-1.91,1.39.28,2.79.55,4.08,1.17.53-2.12,1.05-4.23,1.33-6.4.25-2.04.33-4.1.15-6.2l-.13-.02c-1.39,3.83-1.79,7.83-1.81,11.86-1.11-.31-2.17-.73-3.24-1.16.67-1.43,1.04-2.97,1.04-4.58,0-7.33-7.57-13.27-16.91-13.27s-16.91,5.94-16.91,13.27c0,1.67.41,3.26,1.13,4.73-2.88.36-5.65,1.29-8.5,1.93-1.02-3.88-1.93-7.83-3.59-11.51-2.22-4.94-2.35-4.78-1.09.38.98,4.05,2.79,7.82,4.39,11.64,3.11-.54,6.26-.67,9.29-1.51.17.29.35.57.55.85-2.35.53-4.62,1.36-6.78,2.44-.96.42-1.96.74-2.97,1-4.35-2.7-8.87-5.07-13.84-6.46,0,0-.06.12-.06.12,4.23,3.07,8.98,5.16,13.86,6.91,3.39-1.31,7.05-1.77,10.36-3.26.53.64,1.14,1.24,1.81,1.8-1.96.49-3.84,1.19-5.62,2.18-2.35,1.45-5.03,2-7.62,2.82-2.47,2.77-4.84,5.82-6.54,9.12l.11.08c.72-.6,1.37-1.26,2.02-1.91,1.87-1.85,3.64-4.15,5.16-6.32,1.15-.53,2.26-1.17,3.41-1.71,3.24-1.32,6.74-1.96,9.78-3.71.49.37,1.02.71,1.56,1.03-1.82.67-3.44,1.69-4.94,2.95-2.01,1.34-4.46,1.92-6.54,3.16l-.35.18c-.06,2.12.14,4.22.64,6.29h.14c.44-1.79.63-3.61.64-5.44,1.97-1.15,3.66-2.79,5.72-3.76,1.98-.68,3.8-1.63,5.38-2.99.4.21.81.4,1.23.59-3.1,1.19-5.09,3.03-5.09,5.1,0,3.58,5.94,6.49,13.27,6.49s13.27-2.91,13.27-6.49c0-1.68-1.33-3.21-3.48-4.36.5.17,1,.32,1.53.43,1.83.25,3.35,1.23,4.93,2.09-.2,1.12-.44,2.54-.47,3.58-.06,1.34-.06,2.68.15,4.05l.13.02c1.06-2.67,1.37-5.56,1.47-8.39-1.06-.37-2.18-.57-3.25-.88-1.67-.63-3.19-1.58-4.82-2.26.53-.28,1.04-.58,1.53-.91,1.39.59,2.82,1.05,4.31,1.32,2.39.3,4.53,1.31,6.71,2.25,0,2.57.12,5.13.59,7.67.16.88.32,1.77.57,2.65h.14c.14-.91.2-1.81.25-2.71.18-2.83-.08-5.65-.42-8.46-1.33-.36-2.71-.56-4.04-.9-2.39-.77-4.66-1.88-7.05-2.6.47-.38.92-.77,1.33-1.19,1.99.95,4.11,1.61,6.2,2.35,3.21-2.26,6.73-4.11,9.62-6.83.97-.87,1.9-1.78,2.78-2.77,0,0-.08-.11-.08-.11Z"/>
    <path class="st8" d="M56.61,50.05l7.07-4.23s.38,6.7-7.07,4.23Z"/>
    <path class="st8" d="M43.48,45.82l7.07,3.64s-6.11,3.97-7.07-3.64Z"/>
  </g>
  <g>
    <path class="st5" d="M20.35,78.8c1.53,1.61,3.78,2.45,6.6,2.45,1.81,0,3.49-.34,4.6-.63-.21.52-.26,1.06-.15,1.6.33,1.63,2.06,2.89,3.2,3.56-.4.25-.71.6-.92,1.04-.8,1.63.02,4.11.53,5.36-2.35.06-3.39,1.76-3.75,3.23-.87-.84-1.97-1.26-3.28-1.26-1.98,0-3.93.98-4.95,1.59-.52-2.17-3.55-3.33-5.05-3.77.41-.54.65-1.18.7-1.9.17-2.13-1.3-4.45-2.13-5.57,3.56-.84,4.42-3.85,4.6-5.7M19.87,77.37s.67,6.07-5.04,6.78c0,0,4.66,5.35,1.39,8.07,0,0,5.83,1.26,5.57,4.38,0,0,2.72-1.96,5.39-1.96,1.33,0,2.66.49,3.62,1.96,0,0,.04-3.93,3.52-3.93.21,0,.43.01.67.04,0,0-3.08-6.11.8-6.87,0,0-6.2-2.77-3.08-6.11,0,0-2.71,1.01-5.78,1.01-2.58,0-5.42-.72-7.07-3.37h0Z"/>
    <path class="st5" d="M22.05,81.73c1.07.97,2.56,1.48,4.38,1.48,1.12,0,2.16-.18,2.92-.37-.09.35-.07.66-.02.91.22,1.09,1.27,1.93,2.06,2.42-.2.17-.37.38-.49.62-.54,1.1-.09,2.67.27,3.6-1.42.13-2.13,1.13-2.42,2.08-.6-.49-1.33-.74-2.16-.74-1.28,0-2.55.59-3.3,1.01-.47-1.34-2.25-2.1-3.3-2.44.22-.35.35-.76.39-1.2.11-1.4-.77-2.9-1.36-3.73,2.02-.58,2.81-2.23,3.03-3.64M21.59,80.4s.46,4.16-3.45,4.64c0,0,3.19,3.67.95,5.53,0,0,4,.87,3.81,3,0,0,1.86-1.34,3.69-1.34.91,0,1.82.34,2.48,1.34,0,0,.03-2.69,2.41-2.69.14,0,.3,0,.46.03,0,0-2.11-4.19.55-4.71,0,0-4.25-1.89-2.11-4.19,0,0-1.86.69-3.96.69-1.77,0-3.71-.49-4.84-2.31h0Z"/>
    <path class="st5" d="M23.67,84.52c.59.41,1.35.63,2.25.63.49,0,.95-.06,1.33-.14,0,.09.01.18.03.25.11.57.58,1.02,1,1.32-.05.07-.09.14-.12.2-.28.57-.13,1.34.05,1.89-.56.14-.92.53-1.12.96-.31-.19-.68-.28-1.08-.28-.63,0-1.26.24-1.7.46-.33-.58-1.04-.95-1.6-1.15.06-.16.1-.33.12-.51.06-.71-.29-1.44-.61-1.94.84-.35,1.26-1.03,1.45-1.7M23.28,83.39s.25,2.27-1.89,2.54c0,0,1.74,2,.52,3.02,0,0,2.18.47,2.08,1.64,0,0,1.02-.73,2.02-.73.5,0,1,.18,1.36.73,0,0,.02-1.47,1.32-1.47.08,0,.16,0,.25.02,0,0-1.15-2.29.3-2.57,0,0-2.32-1.04-1.15-2.29,0,0-1.02.38-2.16.38-.97,0-2.03-.27-2.65-1.26h0Z"/>
    <polyline class="st2" points="19.47 76.84 25.61 87.23 34.28 78"/>
    <polyline class="st2" points="16.22 92.23 25.61 87.23 14.83 84.15"/>
    <polyline class="st2" points="30.8 96.6 25.61 87.23 21.79 96.6"/>
    <polyline class="st2" points="35.8 85.85 25.61 87.23 34.99 92.72"/>
  </g>
  <path class="st5" d="M75.15,76.31c.71,1.82,2.78,2.82,5.94,2.82.49,0,.94-.02,1.29-.05-1.19,3.55.97,5.91,2.47,7.05-2.41.5-4.47,2.22-6.04,5.04-.76,1.37-1.25,2.73-1.55,3.69-.7-.96-1.7-1.2-2.52-1.2-1.3,0-2.69.6-3.59,1.07,0-.48-.14-.94-.4-1.36-.98-1.56-3.58-2.18-4.93-2.41.49-.84.67-1.69.53-2.55-.17-1.05-.79-1.88-1.34-2.44.89-.22,1.65-.68,2.28-1.37,1.59-1.75,1.85-4.54,1.87-5.94.31.1.63.15.98.15,1.92,0,3.99-1.6,5.01-2.51M75.42,75.37s-2.85,2.95-5.28,2.95c-.53,0-1.04-.14-1.49-.48,0,0,.54,7.65-4.82,7.8,0,0,3.8,2.41,1.12,5.71,0,0,6.94.6,5.52,4.37,0,0,2.29-1.56,4.29-1.56,1.15,0,2.2.52,2.65,2.17,0,0,1.97-9.83,8.92-9.85,0,0-5.61-2.67-3.17-7.99,0,0-.89.15-2.06.15-2.16,0-5.28-.49-5.67-3.26h0Z"/>
  <path class="st5" d="M75.07,79.63c.57,1.19,2,1.83,4.13,1.83.24,0,.47,0,.67-.02-.59,2.07.42,3.64,1.53,4.58-2.89.79-4.31,3.96-4.88,5.74-.41-.43-.98-.66-1.66-.66-.83,0-1.7.34-2.32.65-.04-.27-.13-.53-.28-.77-.66-1.05-2.27-1.5-3.26-1.68.27-.54.37-1.09.27-1.65-.11-.65-.44-1.18-.79-1.56.53-.18,1-.48,1.39-.91,1.05-1.16,1.28-2.94,1.32-3.97.17.04.34.06.52.06,1.27,0,2.61-.97,3.37-1.62M75.31,78.73s-1.95,2.02-3.62,2.02c-.36,0-.71-.1-1.02-.33,0,0,.37,5.24-3.3,5.34,0,0,2.61,1.65.77,3.91,0,0,4.75.41,3.78,2.99,0,0,1.57-1.07,2.94-1.07.79,0,1.51.36,1.82,1.48,0,0,1.35-6.73,6.11-6.75,0,0-3.84-1.83-2.17-5.48,0,0-.61.1-1.41.1-1.48,0-3.62-.33-3.89-2.23h0Z"/>
  <path class="st5" d="M75.02,82.88c.33.46,1,.88,2.32.88.03,0,.05,0,.08,0-.16.92.21,1.66.7,2.17-1.29.54-2,1.9-2.35,2.86-.23-.14-.5-.21-.8-.21-.39,0-.79.12-1.12.26-.03-.08-.07-.16-.11-.22-.35-.55-1.09-.83-1.66-.96.1-.3.1-.57.06-.77-.05-.28-.16-.52-.29-.72.21-.11.4-.26.57-.44.54-.6.71-1.46.76-2.07.02,0,.05,0,.07,0,.66,0,1.33-.41,1.78-.77M75.21,82.04s-1.07,1.11-1.98,1.11c-.2,0-.39-.05-.56-.18,0,0,.2,2.86-1.81,2.92,0,0,1.42.9.42,2.14,0,0,2.6.23,2.07,1.64,0,0,.86-.58,1.6-.58.43,0,.82.2.99.81,0,0,.74-3.68,3.34-3.69,0,0-2.1-1-1.19-2.99,0,0-.33.05-.77.05-.81,0-1.98-.18-2.12-1.22h0Z"/>
  <polyline class="st2" points="87 86.41 74.72 86.16 78.07 98.61"/>
  <polyline class="st2" points="75.42 75.37 74.72 86.16 83.15 78.48"/>
  <polyline class="st2" points="63.83 85.64 74.72 86.16 68.65 77.84"/>
  <polyline class="st2" points="70.46 95.72 74.72 86.16 64.95 91.35"/>
</svg>