<?xml version="1.0" encoding="UTF-8"?>
<svg id="Layer_1" xmlns="http://www.w3.org/2000/svg" version="1.1" viewBox="0 0 100 100">
  <!-- Generator: Adobe Illustrator 29.8.2, SVG Export Plug-In . SVG Version: 2.1.1 Build 3)  -->
  <defs>
    <style>
      .st0 {
        fill: #b0946b;
      }

      .st1 {
        fill: #664f2a;
      }

      .st2 {
        fill: #67593e;
      }

      .st3 {
        fill: #473616;
      }
    </style>
  </defs>
  <rect class="st1" width="100" height="100" rx="6.34" ry="6.34"/>
  <g>
    <path class="st3" d="M6.34,0C2.84,0,0,2.84,0,6.34v87.32L50,0H6.34Z"/>
    <path class="st3" d="M93.66,0h-43.66l50,93.66V6.34c0-3.5-2.84-6.34-6.34-6.34Z"/>
  </g>
  <path class="st0" d="M85.4,0H14.62c-3.5,0-6.34,2.84-6.34,6.34l5,60.76c0,3.5,2.84,6.34,6.34,6.34h60.77c3.5,0,6.34-2.84,6.34-6.34l5-60.76C91.73,2.84,88.89,0,85.39,0h.01Z"/>
  <path class="st3" d="M16.57,74.21h66.85c3.85,0,3.31-3.08,3.31-6.45l3.57-12.33-7.06-13.52-25.51.07-3.72-6.72-36.48,3.09-7.2,17.98,4.63,11.76c0,3.37-2.25,6.14,1.6,6.14v-.02Z"/>
  <polygon class="st3" points="57.62 21.61 78.36 24.7 81.11 26.9 59.85 23.27 57.62 21.61"/>
  <polygon class="st3" points="38.92 19.15 18.5 24.87 17.11 29.37 37.7 22.52 38.92 19.15"/>
  <path class="st0" d="M17.72,75.95h64.55c3.72,0,6.73-2.69,6.73-6l1.29-13.99-10.15-10.14-24.91,3.68-5.74-7.23-29.47,2.72-10.16,12.94,1.11,12.02c0,3.31,3.02,6,6.73,6h.02Z"/>
  <path class="st2" d="M36.29,75.61c2.91-3.22,6.22-6.29,9.65-8.95l-.08.21c-.21-3.35-.95-6.63-1.51-9.94,2.28-4.02,4.67-8.45,7.63-11.81-1.93,4.22-4.28,8.23-6.84,12.1l.06-.27c.32,3.29.47,6.61,1.13,9.86l.02.11-.1.1c-1.36,1.37-3.29,3.34-4.76,4.55-1.66,1.43-3.36,2.83-5.14,4.12l-.07-.07h0Z"/>
  <path class="st2" d="M21.1,30.85c2.72-3.11,5.83-6.08,9.08-8.65l-.08.21c-.19-3.27-.93-6.46-1.47-9.67,1.61-2.24,3.23-4.48,4.96-6.63l2.58-3.12c.88-1.02,1.77-2.04,2.7-3.02l.08.06c-1.2,2-3.19,4.77-4.56,6.7-1.59,2.18-3.29,4.28-4.99,6.37l.08-.31c.3,3.19.44,6.41,1.1,9.56l.02.11-.1.1c-1.27,1.32-3.09,3.22-4.48,4.39-1.57,1.38-3.17,2.73-4.86,3.98l-.07-.07h.01Z"/>
  <path class="st2" d="M74.18,75.99c-2.33-3.39-4.42-7.13-6.09-10.9l.19.13c-3.2-.64-6.47-.72-9.71-1-1.77-2.11-3.52-4.23-5.16-6.43l-2.37-3.27c-.77-1.11-1.53-2.21-2.25-3.36l.08-.06c1.63,1.65,3.81,4.26,5.33,6.06,1.71,2.07,3.31,4.23,4.9,6.4l-.28-.16c3.16.5,6.3,1.18,9.51,1.33h.11l.07.12c.96,1.56,2.34,3.78,3.12,5.41.94,1.86,1.84,3.73,2.63,5.68l-.09.05h0Z"/>
</svg>