<?xml version="1.0" encoding="UTF-8"?>
<svg id="Layer_1" xmlns="http://www.w3.org/2000/svg" version="1.1" viewBox="0 0 100 100">
  <!-- Generator: Adobe Illustrator 29.8.2, SVG Export Plug-In . SVG Version: 2.1.1 Build 3)  -->
  <defs>
    <style>
      .st0 {
        fill: #4b5473;
      }

      .st1 {
        fill: #c5e7e7;
      }

      .st2 {
        fill: #729ca0;
      }

      .st3 {
        opacity: .3;
      }

      .st4 {
        fill: #363d56;
      }
    </style>
  </defs>
  <g class="st3">
    <rect class="st0" width="100" height="100" rx="6.34" ry="6.34"/>
    <g>
      <path class="st4" d="M6.34,0C2.84,0,0,2.84,0,6.34v87.32L50,0H6.34Z"/>
      <path class="st4" d="M93.66,0h-43.66l50,93.66V6.34c0-3.5-2.84-6.34-6.34-6.34Z"/>
    </g>
    <path class="st1" d="M85.39,0H14.62c-3.5,0-6.34,2.84-6.34,6.34l5,60.76s0,.07,0,.1c.04,2.23,1.88,4.55,4.06,5.95,2.81,1.8,6.42-.61,5.87-3.9h0c-.31-1.84-.18-3.7.07-5.55,0,0,0-.01,0-.02,1.6-11.9,8.51-7.6,8.16-2.85-.22,2.96.74,4.17,2.57,7.84,1.18,2.36,4.54,4.79,6.36,4.69,1.27-.07,2.59-3.6,2.79-5.88.54-6.07.93-12.9,4.99-12.99,4.43-.09,2.18,14.82,3.74,19.96.4,1.33,1,2.21,1.96,2.29,1.28.1,2.09-.85,2.71-2.29,1.61-3.77,3.45-7.27,6.89-7.52,2.94-.22,6.17.15,7.2,4.88.64,2.93,1.43,5.13,3.02,4.54,1.34-.5,1.95-2.32,2.28-4.54.69-4.66-4.93-16.22-2.6-15.81,3.45.59,3,19.06,7.76,18.85,3.5,0,5.62-4.25,5.62-7.75l5-60.76c0-3.5-2.84-6.34-6.34-6.34Z"/>
    <ellipse class="st2" cx="30.34" cy="27.32" rx="12.11" ry="7.36" transform="translate(-6.61 44.7) rotate(-67.19)"/>
    <ellipse class="st2" cx="66.91" cy="29.46" rx="5.84" ry="12.24" transform="translate(-6.15 26.88) rotate(-21.74)"/>
  </g>
</svg>