<?xml version="1.0" encoding="UTF-8"?>
<svg id="Layer_1" xmlns="http://www.w3.org/2000/svg" version="1.1" viewBox="0 0 100 100">
  <!-- Generator: Adobe Illustrator 29.8.2, SVG Export Plug-In . SVG Version: 2.1.1 Build 3)  -->
  <defs>
    <style>
      .st0 {
        fill: #606161;
      }

      .st1 {
        fill: #231f20;
      }

      .st2 {
        fill: #fff;
      }

      .st3 {
        fill: #494b4b;
      }
    </style>
  </defs>
  <rect class="st0" width="100" height="100" rx="6.34" ry="6.34"/>
  <g>
    <path class="st3" d="M6.34,0C2.84,0,0,2.84,0,6.34v87.32L50,0H6.34Z"/>
    <path class="st3" d="M93.66,0h-43.66l50,93.66V6.34c0-3.5-2.84-6.34-6.34-6.34Z"/>
  </g>
  <path class="st2" d="M85.38,0H14.62c-3.5,0-6.34,2.84-6.34,6.34l5,60.76c0,3.5,2.84,6.34,6.34,6.34l15.81-12.68,2.38,4.12-4.44,2.22,6.97,6.35,4.28-5.4,5.39,5.4,5.39-5.4,4.28,5.4,6.97-6.35-4.44-2.22,2.38-4.12,15.81,12.68c3.5,0,6.34-2.84,6.34-6.34l5-60.76C91.74,2.84,88.9,0,85.4,0h-.02Z"/>
  <path class="st1" d="M60.31,33.87l34.75,3.4s-6.14,13.02-17.19,12.08c-11.06-.94-17.56-15.48-17.56-15.48Z"/>
  <path class="st1" d="M39.75,34.01l-34.78,3.1s6.03,13.07,17.09,12.22c11.06-.85,17.69-15.33,17.69-15.33h0Z"/>
  <g>
    <path class="st1" d="M48.32,50.41l-6.05,7.93s3.92,1.25,5.87-1.25.18-6.69.18-6.69h0Z"/>
    <path class="st1" d="M51.68,50.41l6.05,7.93s-3.92,1.25-5.87-1.25c-1.96-2.5-.18-6.69-.18-6.69h0Z"/>
  </g>
  <path class="st1" d="M50,.77c-1.87,2.25-5.65,6.73-7.54,8.96l.02-.31,5.42,8.13.06.09c.09,3.2.13,6.4.19,9.6l.16,9.48v.23c-6.17,4.93-13.65,11.34-19.25,15.45l-.89,4.86-.04.2c-4.48,1.09-10.8,2.41-15.36,3.44,4.46-1.25,10.61-2.85,15.02-3.99l-.23.25.77-4.88.02-.13c6.35-5.31,12.75-10.56,19.17-15.8l-.18.39-.08-9.48c.06-2.84-.2-7.24,0-9.28l-5.21-8.27-.11-.17.13-.14c1.96-2.14,5.94-6.49,7.92-8.62h0Z"/>
  <path class="st1" d="M86.88,64.99c-3.67-4.19-7.07-8.58-10.15-13.21l.2.1c-4.44-.26-8.87.04-13.31.17h-.16l-.13-.12c-5.24-4.69-10.8-9.99-15.55-15.17l.07-.07c1.42,1.14,2.79,2.32,4.16,3.5,3.82,3.32,8.31,7.55,11.9,11.12l-.29-.11c4.47.12,8.95.43,13.42.16,3.49,4.29,7.2,8.93,9.83,13.63h.01Z"/>
</svg>