<?xml version="1.0" encoding="UTF-8"?>
<svg id="Layer_1" xmlns="http://www.w3.org/2000/svg" xmlns:xlink="http://www.w3.org/1999/xlink" version="1.1" viewBox="0 0 100 100">
  <!-- Generator: Adobe Illustrator 29.8.2, SVG Export Plug-In . SVG Version: 2.1.1 Build 3)  -->
  <defs>
    <style>
      .st0 {
        fill: none;
      }

      .st1 {
        fill: #510101;
      }

      .st2 {
        fill: #878b88;
      }

      .st3 {
        fill: #251d35;
      }

      .st4 {
        fill: #bbbc92;
      }

      .st5 {
        fill: #2e0200;
      }

      .st6 {
        clip-path: url(#clippath-1);
      }

      .st7 {
        fill: #382a53;
      }

      .st8 {
        fill: #fff;
      }

      .st9 {
        fill: #040303;
      }

      .st10 {
        fill: #444e22;
      }

      .st11 {
        fill: #9f7d3d;
      }

      .st12 {
        fill: #bfc55b;
      }

      .st13 {
        clip-path: url(#clippath);
      }
    </style>
    <clipPath id="clippath">
      <path class="st0" d="M59.57,63.88c-4.16,1.9-4.75-1.29-10.22-1.29s-5.94-1.09-10.1-2.99c-4.16-1.9-8.67,7.35-8.67,7.35,4.34.59,5.39-1.98,6.97.87,1.58,2.85,6.36.08,11.8.08s11.05,5.17,12.62,2.32c1.58-2.85.63-2.99,4.96-3.58,0,0-3.21-4.65-7.37-2.75Z"/>
    </clipPath>
    <clipPath id="clippath-1">
      <rect class="st0" width="100" height="100" rx="6.34" ry="6.34"/>
    </clipPath>
  </defs>
  <rect class="st7" width="100" height="100" rx="6.34" ry="6.34"/>
  <g>
    <path class="st3" d="M6.34,0C2.84,0,0,2.84,0,6.34v87.32L50,0H6.34Z"/>
    <path class="st3" d="M93.66,0h-43.66l50,93.66V6.34c0-3.5-2.84-6.34-6.34-6.34Z"/>
  </g>
  <path class="st12" d="M85.4,0H14.62c-3.5,0-6.34,2.84-6.34,6.34l5,60.76c0,3.5,2.84,6.34,6.34,6.34h60.77c3.5,0,6.34-2.84,6.34-6.34l5-60.76c0-3.5-2.84-6.34-6.34-6.34h.01Z"/>
  <g>
    <circle class="st8" cx="73.52" cy="41.62" r="10.42"/>
    <circle class="st8" cx="26.48" cy="41.62" r="10.42"/>
    <circle class="st9" cx="31.57" cy="41.62" r="2.77"/>
    <circle class="st9" cx="67.82" cy="41.62" r="2.77"/>
  </g>
  <g>
    <circle class="st10" cx="76.24" cy="41.63" r="13.13"/>
    <circle class="st10" cx="23.76" cy="41.63" r="13.13"/>
    <circle class="st8" cx="73.52" cy="41.62" r="10.42"/>
    <circle class="st8" cx="26.48" cy="41.62" r="10.42"/>
    <circle class="st9" cx="31.57" cy="41.62" r="2.77"/>
    <circle class="st9" cx="67.82" cy="41.62" r="2.77"/>
    <path class="st12" d="M23.76,28.5c-7.25,0-13.13,5.88-13.13,13.13h26.26c0-7.25-5.88-13.13-13.13-13.13Z"/>
    <path class="st12" d="M89.36,41.62c0-7.25-5.88-13.13-13.13-13.13s-12.73,5.5-13.09,12.43l22.68,9.66c2.19-2.35,3.55-5.49,3.55-8.96Z"/>
  </g>
  <path class="st11" d="M60.28,51.1c-1.22-2.31-5.98,0-5.98,0v-13.06c0-3.13-5.3-3.94-5.3-3.94,0,0-5.3.82-5.3,3.94v13.06s-4.76-2.31-5.98,0c-1.22,2.31-.92,4.35-.92,4.35,0,0,1.46-.82,2.82,0,1.36.82,5.58,8.43,9.38,8.43s8.02-7.62,9.38-8.43c1.36-.82,2.82,0,2.82,0,0,0,.31-2.04-.92-4.35Z"/>
  <g>
    <path class="st1" d="M59.57,63.88c-4.16,1.9-4.75-1.29-10.22-1.29s-5.94-1.09-10.1-2.99c-4.16-1.9-8.67,7.35-8.67,7.35,4.34.59,5.39-1.98,6.97.87,1.58,2.85,6.36.08,11.8.08s11.05,5.17,12.62,2.32c1.58-2.85.63-2.99,4.96-3.58,0,0-3.21-4.65-7.37-2.75Z"/>
    <g class="st13">
      <g>
        <rect class="st8" x="38.78" y="57.94" width="1.58" height="4.12"/>
        <rect class="st8" x="51.05" y="61.75" width="1.5" height="3.8"/>
        <polygon class="st8" points="58.74 62.46 56.6 62.46 56.6 57.94 59.57 62.22 58.74 62.46"/>
        <rect class="st8" x="40.36" y="65.55" width="2.53" height="5.7"/>
      </g>
    </g>
  </g>
  <polygon class="st4" points="5.31 17.1 5.13 33.24 8.92 25.45 7.28 34.11 10.07 27.68 8.27 36.12 12.86 28.24 10.36 37.48 23.25 16.17 5.31 17.1"/>
  <polygon class="st4" points="92.36 17.37 95.87 36.14 92.94 27.99 93.65 36.78 91.56 30.08 92.45 38.67 88.73 30.35 90.23 39.8 83.05 21.03 92.36 17.37"/>
  <g>
    <path class="st7" d="M100,14.62l-6.34-14.62H8.28L0,14.74s13.91,18.53,50,18.53c7.85,0,14.65-.88,20.48-2.26l4.01-12.33,4.04,9.92c15.14-5.52,21.46-13.98,21.46-13.98Z"/>
    <g class="st6">
      <path class="st5" d="M5.34,3.09s9.36,18.06,44.67,18.06S95.31,3.09,95.31,3.09l-2.59-15.21H9.19L5.34,3.09Z"/>
    </g>
    <path class="st2" d="M49.6,1.92c-5.98,0-11.35-.42-16.2-1.13l-1.22,20.82c5.16.82,10.93,1.32,17.42,1.32s12.84-.53,18.22-1.43l-1.22-20.82c-5.07.78-10.71,1.25-17,1.25ZM49.74,16.8c-4.25,0-8.03-.22-11.41-.59l.8-9.36c3.18.32,6.69.51,10.61.51,4.12,0,7.81-.21,11.13-.56l.8,9.36c-3.52.4-7.48.64-11.93.64Z"/>
  </g>
</svg>