<?xml version="1.0" encoding="UTF-8"?>
<svg id="Layer_1" xmlns="http://www.w3.org/2000/svg" version="1.1" viewBox="0 0 100 100">
  <!-- Generator: Adobe Illustrator 29.8.2, SVG Export Plug-In . SVG Version: 2.1.1 Build 3)  -->
  <defs>
    <style>
      .st0 {
        fill: #4b5473;
      }

      .st1 {
        fill: #c5e7e7;
      }

      .st2 {
        fill: #729ca0;
      }

      .st3 {
        fill: #363d56;
      }
    </style>
  </defs>
  <rect class="st0" width="100" height="100" rx="6.34" ry="6.34"/>
  <g>
    <path class="st3" d="M6.34,0C2.84,0,0,2.84,0,6.34v87.32L50,0H6.34Z"/>
    <path class="st3" d="M93.66,0h-43.66l50,93.66V6.34c0-3.5-2.84-6.34-6.34-6.34Z"/>
  </g>
  <path class="st1" d="M85.39,0H14.62c-3.5,0-6.34,2.84-6.34,6.34l5,60.76c0,3.5,2.84,6.34,6.34,6.34h2.66c2.74-.46,6.7-2.61,7.38-11.02,1.07-13.07,9.39-5.82,9.03-.95-.22,2.96.76,8.3,2.59,11.97,1.18,2.36,2.72,4.04,4.54,3.95,1.27-.07,1.79-1.66,1.99-3.95.54-6.07-1.17-16.99,2.88-17.08,4.43-.09,3.03,11.94,4.58,17.08.4,1.33,1,2.21,1.96,2.29,1.28.1,2.09-.85,2.71-2.29,1.61-3.77,1.81-10.88,5.26-11.14,2.94-.22,3.56,6.41,4.59,11.14.64,2.93,1.43,5.13,3.02,4.54,1.34-.5,1.95-2.32,2.28-4.54.69-4.66.14-11.07,2.47-10.66,3.45.59-1.92,10.87,2.84,10.66,3.5,0,6.34-2.84,6.34-6.34l5-60.76c0-3.5-2.84-6.34-6.34-6.34Z"/>
  <ellipse class="st2" cx="30.62" cy="25.43" rx="7.92" ry="13.61"/>
  <ellipse class="st2" cx="68" cy="28.36" rx="5.39" ry="14.02"/>
</svg>