<?xml version="1.0" encoding="UTF-8"?>
<svg id="Layer_1" xmlns="http://www.w3.org/2000/svg" xmlns:xlink="http://www.w3.org/1999/xlink" version="1.1" viewBox="0 0 100 100">
  <!-- Generator: Adobe Illustrator 29.8.2, SVG Export Plug-In . SVG Version: 2.1.1 Build 3)  -->
  <defs>
    <style>
      .st0 {
        fill: none;
      }

      .st1 {
        fill: #510101;
      }

      .st2 {
        fill: #878b88;
      }

      .st3 {
        fill: #251d35;
      }

      .st4 {
        fill: #bbbc92;
      }

      .st5 {
        fill: #9f9d41;
      }

      .st6 {
        fill: #2e0200;
      }

      .st7 {
        clip-path: url(#clippath-1);
      }

      .st8 {
        fill: #382a53;
      }

      .st9 {
        fill: #fff;
      }

      .st10 {
        fill: #040303;
      }

      .st11 {
        fill: #444e22;
      }

      .st12 {
        fill: #bfc55b;
      }

      .st13 {
        clip-path: url(#clippath);
      }
    </style>
    <clipPath id="clippath">
      <path class="st0" d="M59.57,63.88c-4.16,1.9-5.11,0-10.57,0s-5.58-2.38-9.74-4.28c-4.16-1.9-7.07-1.07-7.07-1.07,4.34.59,4.58,4.4,6.15,7.25,1.58,2.85,5.22,4.44,10.66,4.44s11.4,2.85,12.98,0c1.58-2.85,1.82-6.65,6.15-7.25,0,0-4.4-.99-8.55.91Z"/>
    </clipPath>
    <clipPath id="clippath-1">
      <rect class="st0" width="100" height="100" rx="6.34" ry="6.34"/>
    </clipPath>
  </defs>
  <rect class="st8" width="100" height="100" rx="6.34" ry="6.34"/>
  <g>
    <path class="st3" d="M6.34,0C2.84,0,0,2.84,0,6.34v87.32L50,0H6.34Z"/>
    <path class="st3" d="M93.66,0h-43.66l50,93.66V6.34c0-3.5-2.84-6.34-6.34-6.34Z"/>
  </g>
  <path class="st12" d="M85.4,0H14.62c-3.5,0-6.34,2.84-6.34,6.34l5,60.76c0,3.5,2.84,6.34,6.34,6.34h60.77c3.5,0,6.34-2.84,6.34-6.34l5-60.76c0-3.5-2.84-6.34-6.34-6.34h.01Z"/>
  <g>
    <circle class="st9" cx="73.52" cy="41.62" r="10.42"/>
    <circle class="st9" cx="26.48" cy="41.62" r="10.42"/>
    <circle class="st10" cx="31.57" cy="41.62" r="2.77"/>
    <circle class="st10" cx="67.82" cy="41.62" r="2.77"/>
  </g>
  <g>
    <circle class="st11" cx="76.24" cy="41.63" r="13.13"/>
    <circle class="st11" cx="23.76" cy="41.63" r="13.13"/>
    <circle class="st9" cx="73.52" cy="41.62" r="10.42"/>
    <circle class="st9" cx="26.48" cy="41.62" r="10.42"/>
    <circle class="st10" cx="31.57" cy="41.62" r="2.77"/>
    <circle class="st10" cx="67.82" cy="41.62" r="2.77"/>
    <path class="st12" d="M76.24,28.5c-7.25,0-13.13,5.88-13.13,13.13h26.26c0-7.25-5.88-13.13-13.13-13.13Z"/>
  </g>
  <path class="st5" d="M60.28,51.1c-1.22-2.31-5.98,0-5.98,0v-13.06c0-3.13-5.3-3.94-5.3-3.94,0,0-5.3.82-5.3,3.94v13.06s-4.76-2.31-5.98,0c-1.22,2.31-.92,4.35-.92,4.35,0,0,1.46-.82,2.82,0,1.36.82,5.58,8.43,9.38,8.43s8.02-7.62,9.38-8.43c1.36-.82,2.82,0,2.82,0,0,0,.31-2.04-.92-4.35Z"/>
  <g>
    <path class="st1" d="M59.57,63.88c-4.16,1.9-5.11,0-10.57,0s-5.58-2.38-9.74-4.28c-4.16-1.9-7.07-1.07-7.07-1.07,4.34.59,4.58,4.4,6.15,7.25,1.58,2.85,5.22,4.44,10.66,4.44s11.4,2.85,12.98,0c1.58-2.85,1.82-6.65,6.15-7.25,0,0-4.4-.99-8.55.91Z"/>
    <g class="st13">
      <g>
        <rect class="st9" x="38.78" y="57.94" width="1.58" height="4.12"/>
        <rect class="st9" x="42.89" y="60.95" width="2.06" height="4.04"/>
        <rect class="st9" x="51.05" y="61.75" width="1.5" height="3.8"/>
        <polygon class="st9" points="58.74 62.46 56.6 62.46 56.6 57.94 59.57 62.22 58.74 62.46"/>
        <rect class="st9" x="40.36" y="65.55" width="2.53" height="5.7"/>
        <rect class="st9" x="47.57" y="67.61" width="1.74" height="3.64"/>
        <rect class="st9" x="53.51" y="67.61" width="1.5" height="4.12"/>
      </g>
    </g>
  </g>
  <polygon class="st4" points="10.76 18.68 2.62 29.25 9.03 23.43 4.28 30.85 9.27 25.92 4.46 33.09 11.65 27.49 5.88 35.13 21.03 21.92 10.76 18.68"/>
  <polygon class="st4" points="89.91 21.52 98.05 32.1 91.64 26.28 96.39 33.7 91.4 28.77 96.21 35.94 89.02 30.33 94.78 37.98 79.63 24.77 89.91 21.52"/>
  <g>
    <path class="st8" d="M0,14.74s13.91,18.53,50,18.53,50-18.65,50-18.65l-6.34-14.62H8.28L0,14.74Z"/>
    <g class="st7">
      <path class="st6" d="M5.34,3.09s9.36,18.06,44.67,18.06S95.31,3.09,95.31,3.09l-2.59-15.21H9.19L5.34,3.09Z"/>
    </g>
    <path class="st2" d="M49.6,1.92c-5.98,0-11.35-.42-16.2-1.13l-1.22,20.82c5.16.82,10.93,1.32,17.42,1.32s12.84-.53,18.22-1.43l-1.22-20.82c-5.07.78-10.71,1.25-17,1.25ZM49.74,16.8c-4.25,0-8.03-.22-11.41-.59l.8-9.36c3.18.32,6.69.51,10.61.51,4.12,0,7.81-.21,11.13-.56l.8,9.36c-3.52.4-7.48.64-11.93.64Z"/>
  </g>
</svg>