<?xml version="1.0" encoding="UTF-8"?>
<svg id="Layer_1" xmlns="http://www.w3.org/2000/svg" version="1.1" viewBox="0 0 100 100">
  <!-- Generator: Adobe Illustrator 29.8.2, SVG Export Plug-In . SVG Version: 2.1.1 Build 3)  -->
  <defs>
    <style>
      .st0 {
        fill: #ffdc2d;
      }

      .st1 {
        fill: #ae5f21;
      }

      .st2 {
        fill: #f6883c;
      }

      .st3 {
        fill: #c1651b;
      }

      .st4 {
        fill: #8d4c14;
      }
    </style>
  </defs>
  <rect class="st1" width="100" height="100" rx="6.34" ry="6.34"/>
  <g>
    <path class="st4" d="M6.34,0C2.84,0,0,2.84,0,6.34v87.32L50,0H6.34Z"/>
    <path class="st4" d="M93.66,0h-43.66l50,93.66V6.34c0-3.5-2.84-6.34-6.34-6.34Z"/>
  </g>
  <path class="st2" d="M85.4,0H14.62c-3.5,0-6.34,2.84-6.34,6.34l5,60.76c0,3.5,2.84,6.34,6.34,6.34h60.77c3.5,0,6.34-2.84,6.34-6.34l5-60.76C91.73,2.84,88.89,0,85.39,0h.01Z"/>
  <path class="st3" d="M48.72,7.69c-4.36-4.1-10.85-5.12-16.48-6.5,5.86,0,13,1.29,16.48,6.5h0Z"/>
  <path class="st3" d="M48.72,7.69c-12.15,1.52-24.38,5.9-33.49,14.29-1.33,1.1-2.52,2.56-3.74,3.77C19.84,14,34.59,7.98,48.72,7.69h0Z"/>
  <path class="st3" d="M48.72,7.69c-13.29,15.53-22.66,36.39-19.07,57.11.41,2.94,1.27,5.79,2.12,8.65-9.43-22.71.47-48.97,16.95-65.75h0Z"/>
  <path class="st3" d="M48.72,7.69c4.01-4.89,16.76-5.69,22.85-5.89,1.15.01,2.29-.01,3.43.03-6.75.96-13.56,1.5-20.18,3.14-2.12.62-4.48,1.12-6.1,2.72h0Z"/>
  <path class="st3" d="M48.72,7.69c5.15,3.63,9.26,8.65,13.01,13.67,9.24,12.7,15.68,27.56,20.7,42.39.91,3.02,1.85,6.03,2.72,9.05-1.09-2.96-2.12-5.93-3.19-8.89-4.94-13.1-10.72-26.38-18.26-38.19-4.28-6.54-8.9-13.05-14.99-18.03h0Z"/>
  <path class="st3" d="M48.72,7.69c7.34-.9,14.73,1.35,21.52,3.95,4.97,1.91,10.16,4.71,14.75,7.45,1.54,1.01,3.09,1.99,4.6,3.02-1.63-.84-3.23-1.73-4.84-2.59-4.71-2.46-9.95-5.04-14.87-6.94-6.74-2.6-13.85-5.01-21.15-4.88h0Z"/>
  <polygon class="st0" points="18.83 28.9 30.67 15.62 38.59 35.87 18.83 28.9"/>
  <polygon class="st0" points="81.02 26.32 69.1 15.94 59.8 33.12 81.02 26.32"/>
  <polygon class="st0" points="43.73 45.67 48.95 34.97 53.71 48.28 47.53 44.95 43.73 45.67"/>
  <path class="st0" d="M81.25,45.9s-4.4,3.21-14.26,5.47v4.28h-5.23v-3.27c-3.82.6-8.24,1.03-13.31,1.13-4.26.09-7.96-.12-11.17-.51v3.36h-5.23v-4.25c-10-2.2-13.31-6.21-13.31-6.21,0,0,.46,19.64,27.56,20.85v-3.74h7.13v3.62c24.65-2.05,27.8-20.73,27.8-20.73Z"/>
</svg>