<?xml version="1.0" encoding="UTF-8"?>
<svg id="Layer_1" xmlns="http://www.w3.org/2000/svg" version="1.1" viewBox="0 0 100 100">
  <!-- Generator: Adobe Illustrator 29.8.2, SVG Export Plug-In . SVG Version: 2.1.1 Build 3)  -->
  <defs>
    <style>
      .st0 {
        fill: #231f20;
      }

      .st1, .st2 {
        fill: none;
        stroke: #fff;
        stroke-miterlimit: 10;
      }

      .st3 {
        fill: #72737a;
      }

      .st4 {
        fill: #31373c;
      }

      .st2 {
        stroke-width: .5px;
      }

      .st5 {
        fill: #fff;
      }

      .st6 {
        fill: #1d2226;
      }

      .st7 {
        fill: #454c51;
      }

      .st8 {
        fill: #dc2826;
      }
    </style>
  </defs>
  <rect class="st7" width="100" height="100" rx="6.34" ry="6.34"/>
  <g>
    <path class="st4" d="M6.34,0C2.84,0,0,2.84,0,6.34v87.32L50,0H6.34Z"/>
    <path class="st4" d="M93.66,0h-43.66l50,93.66V6.34c0-3.5-2.84-6.34-6.34-6.34Z"/>
  </g>
  <path class="st3" d="M85.4,0H14.62c-3.5,0-6.34,2.84-6.34,6.34l5,60.76c0,3.5,2.84,6.34,6.34,6.34h60.77c3.5,0,6.34-2.84,6.34-6.34l5-60.76c0-3.5-2.84-6.34-6.34-6.34h.01Z"/>
  <polygon class="st4" points="22.09 64.44 17.53 9 82.48 9 77.92 64.44 22.09 64.44"/>
  <polygon class="st7" points="32.09 64.44 17.53 9 82.48 9 67.92 64.44 32.09 64.44"/>
  <polygon class="st6" points="28.09 64.44 27.06 45.28 73.1 44.73 71.92 64.44 28.09 64.44"/>
  <g>
    <path class="st5" d="M38.75,26.98c3.2,3.41,7.94,5.2,13.87,5.2,3.85,0,7.42-.73,9.74-1.34-.47,1.12-.59,2.26-.35,3.43.7,3.43,4.39,6.09,6.76,7.47-.86.53-1.53,1.26-1.98,2.2-1.68,3.43.07,8.68,1.14,11.27-5,.09-7.17,3.73-7.91,6.83-1.83-1.79-4.14-2.69-6.91-2.69-4.17,0-8.3,2.09-10.43,3.36-1.06-4.59-7.51-7.04-10.65-7.97.88-1.15,1.39-2.49,1.51-4.01.36-4.49-2.78-9.39-4.5-11.7,7.58-1.75,9.34-8.17,9.71-12.03M37.8,24.1s1.4,12.73-10.57,14.22c0,0,9.77,11.23,2.92,16.94,0,0,12.24,2.65,11.68,9.19,0,0,5.7-4.11,11.3-4.11,2.8,0,5.58,1.03,7.6,4.11,0,0,.09-8.25,7.39-8.25.44,0,.91.03,1.41.09,0,0-6.46-12.82,1.68-14.41,0,0-13.01-5.8-6.46-12.82,0,0-5.7,2.12-12.12,2.12-5.42,0-11.36-1.51-14.83-7.08h0Z"/>
    <path class="st5" d="M42.32,33.14c2.23,2.07,5.37,3.15,9.23,3.15,2.37,0,4.59-.4,6.18-.79-.17.64-.19,1.3-.06,1.96.47,2.29,2.7,4.06,4.36,5.09-.45.36-.8.81-1.06,1.34-1.13,2.31-.16,5.63.6,7.56-3.04.25-4.52,2.39-5.13,4.4-1.25-1.04-2.8-1.59-4.56-1.59-2.71,0-5.39,1.25-6.95,2.14-.96-2.85-4.77-4.45-6.98-5.16.48-.75.76-1.6.84-2.55.24-2.94-1.64-6.12-2.87-7.85,4.31-1.21,5.97-4.72,6.4-7.71M41.39,30.45s.96,8.72-7.24,9.74c0,0,6.7,7.69,2,11.6,0,0,8.38,1.82,8,6.29,0,0,3.9-2.82,7.74-2.82,1.92,0,3.82.7,5.21,2.82,0,0,.06-5.65,5.07-5.65.3,0,.62.02.96.06,0,0-4.43-8.78,1.15-9.87,0,0-8.91-3.97-4.42-8.78,0,0-3.9,1.45-8.3,1.45-3.71,0-7.78-1.03-10.16-4.85h0Z"/>
    <path class="st5" d="M45.74,39.02c1.24.89,2.84,1.35,4.75,1.35,1.04,0,2.03-.14,2.85-.3,0,.21.02.41.06.58.24,1.19,1.23,2.14,2.12,2.76-.12.16-.21.31-.28.46-.59,1.21-.26,2.83.12,3.97-1.2.29-1.97,1.12-2.4,2.06-.66-.4-1.43-.61-2.28-.61-1.34,0-2.66.52-3.58.99-.68-1.25-2.22-2.02-3.39-2.45.14-.34.23-.71.26-1.09.12-1.5-.64-3.04-1.31-4.09,1.82-.72,2.71-2.2,3.08-3.63M44.94,36.71s.53,4.77-3.96,5.33c0,0,3.66,4.2,1.09,6.34,0,0,4.58.99,4.37,3.44,0,0,2.13-1.54,4.23-1.54,1.05,0,2.09.38,2.85,1.54,0,0,.03-3.09,2.77-3.09.17,0,.34.01.53.04,0,0-2.42-4.8.63-5.4,0,0-4.87-2.17-2.42-4.8,0,0-2.13.79-4.54.79-2.03,0-4.25-.57-5.55-2.65h0Z"/>
    <polyline class="st1" points="36.95 22.97 49.83 44.77 68.02 25.41"/>
    <polyline class="st1" points="30.14 55.25 49.83 44.77 27.22 38.32"/>
    <polyline class="st1" points="60.72 64.44 49.83 44.77 41.82 64.44"/>
    <polyline class="st1" points="71.2 41.87 49.83 44.77 69.52 56.28"/>
  </g>
  <g>
    <path class="st0" d="M74.41,40.27c-.83.41-1.62.87-2.39,1.36-2.13,1.36-4.8,3.69-6.2,5.15-1.26-.69-2.51-1.41-3.82-1.96.35-.42.67-.87.93-1.34.97.2,1.95.38,2.86.82.37-1.48.73-2.97.93-4.48l-1.25,3.96c-.77-.22-1.52-.51-2.27-.81.47-1,.73-2.08.73-3.21,0-5.13-5.3-9.29-11.85-9.29s-11.85,4.16-11.85,9.29c0,1.17.29,2.28.79,3.31-2.02.25-3.96.9-5.96,1.35l-.2.35c2.18-.38,4.39-.47,6.51-1.06.12.2.25.4.38.59-1.65.37-3.23.95-4.75,1.71-.67.29-1.37.52-2.08.7-3.05-1.89-6.21-3.55-9.69-4.53,0,0-.04.09-.04.09,2.97,2.15,6.29,3.61,9.71,4.84,2.38-.91,4.94-1.24,7.26-2.29.37.45.8.87,1.26,1.26-1.37.35-2.69.83-3.93,1.52-1.65,1.02-3.53,1.4-5.34,1.98-1.73,1.94-3.39,4.08-4.58,6.39l.07.06c.5-.42.96-.88,1.42-1.34,1.31-1.3,2.55-2.91,3.61-4.42.81-.37,1.58-.82,2.39-1.2,2.27-.93,4.72-1.37,6.85-2.6.35.26.71.5,1.1.72-1.28.47-2.41,1.18-3.46,2.07l.17.31c1.39-.48,2.66-1.14,3.77-2.09.28.15.57.28.86.41-2.17.83-3.57,2.12-3.57,3.58,0,2.51,4.16,4.55,9.29,4.55s9.29-2.04,9.29-4.55c0-1.18-.93-2.25-2.44-3.05.35.12.7.23,1.07.3l2.08.32c-1.17-.44-2.24-1.11-3.38-1.59.37-.2.73-.41,1.07-.64.97.41,1.97.74,3.02.92,1.67.21,3.18.92,4.7,1.58,0,1.8.09,3.59.41,5.37.11.62.23,1.24.4,1.86h.09c.1-.64.14-1.27.17-1.9.13-1.98-.06-3.96-.29-5.92-.93-.25-1.9-.39-2.83-.63-1.67-.54-3.26-1.32-4.94-1.82.33-.26.64-.54.93-.83,1.39.67,2.88,1.13,4.34,1.65,2.25-1.58,4.72-2.88,6.74-4.79.68-.61,1.33-1.25,1.95-1.94,0,0-.06-.08-.06-.08Z"/>
    <path class="st8" d="M54.18,51.78l5.75.51s-2.54,3.95-5.75-.51Z"/>
    <path class="st8" d="M44.77,52.19l5.54-.66s-1.99,4.7-5.54.66Z"/>
  </g>
  <g>
    <path class="st5" d="M20.35,78.8c1.53,1.61,3.78,2.45,6.6,2.45,1.81,0,3.49-.34,4.6-.63-.21.52-.26,1.06-.15,1.6.33,1.63,2.06,2.89,3.2,3.56-.4.25-.71.6-.92,1.04-.8,1.63.02,4.11.53,5.36-2.35.06-3.39,1.76-3.75,3.23-.87-.84-1.97-1.26-3.28-1.26-1.98,0-3.93.98-4.95,1.59-.52-2.17-3.55-3.33-5.05-3.77.41-.54.65-1.18.7-1.9.17-2.13-1.3-4.45-2.13-5.57,3.56-.84,4.42-3.85,4.6-5.7M19.87,77.37s.67,6.07-5.04,6.78c0,0,4.66,5.35,1.39,8.07,0,0,5.83,1.26,5.57,4.38,0,0,2.72-1.96,5.39-1.96,1.33,0,2.66.49,3.62,1.96,0,0,.04-3.93,3.52-3.93.21,0,.43.01.67.04,0,0-3.08-6.11.8-6.87,0,0-6.2-2.77-3.08-6.11,0,0-2.71,1.01-5.78,1.01-2.58,0-5.42-.72-7.07-3.37h0Z"/>
    <path class="st5" d="M22.05,81.73c1.07.97,2.56,1.48,4.38,1.48,1.12,0,2.16-.18,2.92-.37-.09.35-.07.66-.02.91.22,1.09,1.27,1.93,2.06,2.42-.2.17-.37.38-.49.62-.54,1.1-.09,2.67.27,3.6-1.42.13-2.13,1.13-2.42,2.08-.6-.49-1.33-.74-2.16-.74-1.28,0-2.55.59-3.3,1.01-.47-1.34-2.25-2.1-3.3-2.44.22-.35.35-.76.39-1.2.11-1.4-.77-2.9-1.36-3.73,2.02-.58,2.81-2.23,3.03-3.64M21.59,80.4s.46,4.16-3.45,4.64c0,0,3.19,3.67.95,5.53,0,0,4,.87,3.81,3,0,0,1.86-1.34,3.69-1.34.91,0,1.82.34,2.48,1.34,0,0,.03-2.69,2.41-2.69.14,0,.3,0,.46.03,0,0-2.11-4.19.55-4.71,0,0-4.25-1.89-2.11-4.19,0,0-1.86.69-3.96.69-1.77,0-3.71-.49-4.84-2.31h0Z"/>
    <path class="st5" d="M23.67,84.52c.59.41,1.35.63,2.25.63.49,0,.95-.06,1.33-.14,0,.09.01.18.03.25.11.57.58,1.02,1,1.32-.05.07-.09.14-.12.2-.28.57-.13,1.34.05,1.89-.56.14-.92.53-1.12.96-.31-.19-.68-.28-1.08-.28-.63,0-1.26.24-1.7.46-.33-.58-1.04-.95-1.6-1.15.06-.16.1-.33.12-.51.06-.71-.29-1.44-.61-1.94.84-.35,1.26-1.03,1.45-1.7M23.28,83.39s.25,2.27-1.89,2.54c0,0,1.74,2,.52,3.02,0,0,2.18.47,2.08,1.64,0,0,1.02-.73,2.02-.73.5,0,1,.18,1.36.73,0,0,.02-1.47,1.32-1.47.08,0,.16,0,.25.02,0,0-1.15-2.29.3-2.57,0,0-2.32-1.04-1.15-2.29,0,0-1.02.38-2.16.38-.97,0-2.03-.27-2.65-1.26h0Z"/>
    <polyline class="st2" points="19.47 76.84 25.61 87.23 34.28 78"/>
    <polyline class="st2" points="16.22 92.23 25.61 87.23 14.83 84.15"/>
    <polyline class="st2" points="30.8 96.6 25.61 87.23 21.79 96.6"/>
    <polyline class="st2" points="35.8 85.85 25.61 87.23 34.99 92.72"/>
  </g>
</svg>