<?xml version="1.0" encoding="UTF-8"?>
<svg id="Layer_1" xmlns="http://www.w3.org/2000/svg" version="1.1" viewBox="0 0 100 100">
  <!-- Generator: Adobe Illustrator 29.8.2, SVG Export Plug-In . SVG Version: 2.1.1 Build 3)  -->
  <defs>
    <style>
      .st0 {
        fill: none;
      }

      .st1 {
        fill: #c5c5c0;
      }

      .st2 {
        fill: #bbbbb7;
      }

      .st3 {
        fill: #e3e2db;
      }

      .st4 {
        fill: #d2d1cb;
      }

      .st5 {
        fill: #b6b6b2;
      }

      .st6 {
        fill: #76766d;
      }

      .st7 {
        fill: #fff;
      }

      .st8 {
        fill: #4a464d;
      }

      .st9 {
        fill: #8c8b86;
      }

      .st10 {
        fill: #969489;
      }

      .st11 {
        fill: #908f84;
      }

      .st12 {
        fill: #bebcb6;
      }

      .st13 {
        fill: #9d9c90;
      }

      .st14 {
        fill: #aba99d;
      }
    </style>
  </defs>
  <g>
    <path class="st13" d="M92.52,79.64L97.1,1.02c-.99-.64-2.17-1.02-3.44-1.02H6.34c-.59,0-1.16.09-1.7.24v84.73l87.87-5.32h0Z"/>
    <path class="st12" d="M0,88.91v4.75c0,3.5,2.84,6.34,6.34,6.34h87.32c2.86,0,5.27-1.89,6.07-4.49L0,88.91Z"/>
    <path class="st14" d="M100,93.66V6.34c0-2.23-1.16-4.19-2.9-5.32l-4.59,78.62-87.87,5.32V.24C1.97.98,0,3.43,0,6.34v82.57l99.73,6.59c.18-.58.27-1.2.27-1.85h0Z"/>
  </g>
  <g>
    <polygon class="st0" points="4.64 84.96 92.52 79.64 50 0 4.64 84.96 4.64 84.96"/>
    <path class="st9" d="M50,0H6.34c-.59,0-1.16.09-1.7.24v84.73L50,0Z"/>
    <path class="st10" d="M4.64.24C1.97.98,0,3.43,0,6.34v87.32l4.64-8.7V.24Z"/>
    <path class="st6" d="M92.52,79.64l7.48,14.02V6.34c0-2.23-1.16-4.19-2.9-5.32l-4.59,78.62h.01Z"/>
    <path class="st11" d="M92.52,79.64L97.1,1.02c-.99-.64-2.17-1.02-3.44-1.02h-43.66l42.52,79.64h0Z"/>
  </g>
  <polygon class="st8" points="59.12 81.66 92.51 79.65 93.81 57.56 97.1 88.22 59.12 81.66"/>
  <g>
    <polygon class="st8" points="14.09 16.08 15.87 47.34 84.47 41.6 86.28 9.82 14.09 16.08"/>
    <g>
      <path class="st2" d="M91.28,11.81l.45-5.47c0-.83-.16-1.62-.45-2.35L8.79,12.56l.52,6.29,81.97-7.04Z"/>
      <path class="st3" d="M85.39,0H14.62c-3.5,0-6.34,2.84-6.34,6.34l.51,6.22L91.28,3.99c-.93-2.34-3.22-3.99-5.89-3.99Z"/>
      <path class="st1" d="M13.28,67.1c0,3.5,2.84,6.34,6.34,6.34h60.77c3.5,0,6.34-2.84,6.34-6.34l.44-5.35-74.01,3.88s.12,1.47.12,1.47Z"/>
      <polygon class="st5" points="89.06 38.82 68.18 38.82 11.7 47.93 11.96 51.02 87.71 55.22 89.06 38.82"/>
      <polygon class="st4" points="11.96 51.02 13.16 65.63 87.17 61.75 87.71 55.22 11.96 51.02"/>
      <polygon class="st3" points="11.32 43.38 11.7 47.93 68.18 38.82 11.32 43.38"/>
    </g>
  </g>
  <path class="st7" d="M55.06,25.77l24.19.86s-7.71,14.3-24.19-.86Z"/>
  <path class="st7" d="M43.98,26.05l-24.21.27s7.35,14.49,24.21-.27Z"/>
  <path class="st5" d="M71,53.8h-8.92s18.49,21.83,6.1,23.02l4.27,10.22s29.68-10.76-1.45-33.24Z"/>
</svg>