<?xml version="1.0" encoding="UTF-8"?>
<svg id="Layer_1" xmlns="http://www.w3.org/2000/svg" version="1.1" viewBox="0 0 100 100">
  <!-- Generator: Adobe Illustrator 29.8.2, SVG Export Plug-In . SVG Version: 2.1.1 Build 3)  -->
  <defs>
    <style>
      .st0 {
        fill: #606161;
      }

      .st1 {
        fill: #231f20;
      }

      .st2 {
        fill: #fff;
      }

      .st3 {
        fill: #494b4b;
      }
    </style>
  </defs>
  <rect class="st0" width="100" height="100" rx="6.34" ry="6.34"/>
  <g>
    <path class="st3" d="M6.34,0C2.84,0,0,2.84,0,6.34v87.32L50,0H6.34Z"/>
    <path class="st3" d="M93.66,0h-43.66l50,93.66V6.34c0-3.5-2.84-6.34-6.34-6.34Z"/>
  </g>
  <path class="st2" d="M85.38,0H14.62c-3.5,0-6.34,2.84-6.34,6.34l5,60.76c0,3.5,2.84,6.34,6.34,6.34l15.81-12.68,2.38,4.12-4.44,2.22,6.97,6.35,4.28-5.4,5.39,5.4,5.39-5.4,4.28,5.4,6.97-6.35-4.44-2.22,2.38-4.12,15.81,12.68c3.5,0,6.34-2.84,6.34-6.34l5-60.76C91.74,2.84,88.9,0,85.4,0h-.02Z"/>
  <path class="st1" d="M59.09,38.1l34.5-5.39s-2.69,14.14-13.63,15.99c-10.94,1.85-20.87-10.6-20.87-10.6Z"/>
  <path class="st1" d="M40.91,38.1l-34.5-5.39s2.69,14.14,13.63,15.99c10.94,1.85,20.87-10.6,20.87-10.6Z"/>
  <g>
    <path class="st1" d="M48.32,50.41l-6.05,7.93s3.92,1.25,5.87-1.25.18-6.69.18-6.69h0Z"/>
    <path class="st1" d="M51.68,50.41l6.05,7.93s-3.92,1.25-5.87-1.25c-1.96-2.5-.18-6.69-.18-6.69h0Z"/>
  </g>
</svg>