<?xml version="1.0" encoding="UTF-8"?>
<svg id="Layer_1" xmlns="http://www.w3.org/2000/svg" version="1.1" viewBox="0 0 100 100">
  <!-- Generator: Adobe Illustrator 29.8.2, SVG Export Plug-In . SVG Version: 2.1.1 Build 3)  -->
  <defs>
    <style>
      .st0 {
        fill: #2c2c38;
      }

      .st1 {
        fill: #0f0e0d;
      }

      .st2 {
        fill: #f7d348;
      }

      .st3 {
        fill: #494958;
      }
    </style>
  </defs>
  <rect class="st3" width="100" height="100" rx="6.34" ry="6.34"/>
  <g>
    <path class="st0" d="M6.34,0C2.84,0,0,2.84,0,6.34v87.32L50,0H6.34Z"/>
    <path class="st0" d="M93.66,0h-43.66l50,93.66V6.34c0-3.5-2.84-6.34-6.34-6.34Z"/>
  </g>
  <rect class="st0" x="32.76" width="34.93" height="20.95"/>
  <path class="st1" d="M94.4,21.98l.58-11.14C94.98,4.85,91.92-.01,88.15-.01h-7.95l-7.39,12.88L66.66-.01l-6.4,7.19h-20.49L33.37-.01l-6.15,12.88L19.82,0h-7.95c-3.77,0-6.83,4.86-6.83,10.85l2.28,43.93c3.05-2.19,7.51-4.03,7.85,3.52,2.45-1.13,5.55-2.57,5.55-2.57l-5.55,4.52c-.05,1.33-.19,2.88-.45,4.67,0,0,12.55-5.83,4.35,12.13,3.46-2.11,15.51-7.77,18.98-3.05.73,1,1.45,2.02,2.15,3.05,5.5,8.07,9.8,10.56,9.8,10.56,0,0,4.3-2.49,9.8-10.56.7-1.03,1.42-2.05,2.15-3.05,3.47-4.72,15.53.94,18.98,3.05-8.2-17.96,4.35-12.13,4.35-12.13-2.18-14.99,3.67-12.82,7.4-10.14l1.15-22.16-9.05-10.63h9.62Z"/>
  <g>
    <path class="st2" d="M55.97,30.02s-1.31-8.94,5.81-9.74c7.12-.8,10.02,2.34,10.02,2.34,0,0-6.18,8.16-15.83,7.4Z"/>
    <path class="st2" d="M45.9,27.21s-.55-6.14-7.68-6.93-6.97,10.89-6.97,10.89c0,0,6.89-4.51,14.65-3.96Z"/>
  </g>
  <path class="st2" d="M60.53,39.83l-.2,1.09h-3.4l-.19-.33c-2.16.35-4.44.59-6.73.61-2.29-.02-4.58-.26-6.73-.61l-2.77,4.81-1.02-5.57c-5.26-1.23-8.23,1.69-8.23,1.69,0,0,.44,7.67,6.14,10.05,5.7,2.38,12.62,1.74,12.62,1.74,0,0,6.91.63,12.62-1.74,5.71-2.37,6.97-10.26,6.97-10.26,0,0-3.8-2.71-9.06-1.48h-.02Z"/>
</svg>