<?xml version="1.0" encoding="UTF-8"?>
<svg id="Layer_1" xmlns="http://www.w3.org/2000/svg" version="1.1" viewBox="0 0 100 100">
  <!-- Generator: Adobe Illustrator 29.8.2, SVG Export Plug-In . SVG Version: 2.1.1 Build 3)  -->
  <defs>
    <style>
      .st0 {
        fill: #2c2c38;
      }

      .st1 {
        fill: #0f0e0d;
      }

      .st2 {
        fill: #f7d348;
      }

      .st3 {
        fill: #494958;
      }
    </style>
  </defs>
  <rect class="st3" width="100" height="100" rx="6.34" ry="6.34"/>
  <g>
    <path class="st0" d="M6.34,0C2.84,0,0,2.84,0,6.34v87.32L50,0H6.34Z"/>
    <path class="st0" d="M93.66,0h-43.66l50,93.66V6.34c0-3.5-2.84-6.34-6.34-6.34Z"/>
  </g>
  <rect class="st0" x="32.76" width="34.93" height="20.95"/>
  <path class="st1" d="M88.14,0h-7.95l-7.39,12.88-6.15-12.88-6.4,7.19h-20.49l-6.4-7.19-6.15,12.88L19.82,0h-7.95c-3.77,0-6.83,4.86-6.83,10.85l2.28,43.93c3.74-2.68,9.58-4.85,7.4,10.14,0,0,12.55-5.83,4.35,12.13,3.46-2.11,15.51-7.77,18.98-3.05.73,1,1.45,2.02,2.15,3.05,5.5,8.07,9.8,10.56,9.8,10.56,0,0,4.3-2.49,9.8-10.56.7-1.03,1.42-2.05,2.15-3.05,3.47-4.72,15.53.94,18.98,3.05-8.2-17.96,4.35-12.13,4.35-12.13-2.18-14.99,3.67-12.82,7.4-10.14l2.28-43.93C94.96,4.86,91.9,0,88.13,0h.01Z"/>
  <g>
    <path class="st2" d="M56.08,31.69s-1.43-10.61,5.7-11.41,8.55,6.34,8.55,6.34c0,0-5.86-.79-14.26,5.07h.01Z"/>
    <path class="st2" d="M43.93,31.69s1.43-10.61-5.7-11.41-8.55,6.34-8.55,6.34c0,0,5.86-.79,14.26,5.07h-.01Z"/>
  </g>
  <path class="st2" d="M60.53,39.83l-1.02,5.57-2.77-4.81c-2.16.35-4.44.59-6.73.61-2.29-.02-4.58-.26-6.73-.61l-2.77,4.81-1.02-5.57c-5.26-1.23-9.06-2.84-9.06-2.84,0,0,1.27,12.2,6.97,14.57s12.62,1.74,12.62,1.74c0,0,6.91.63,12.62-1.74,5.71-2.37,6.97-14.57,6.97-14.57,0,0-3.8,1.61-9.06,2.84h-.02Z"/>
</svg>