<?xml version="1.0" encoding="UTF-8"?>
<svg id="Layer_1" xmlns="http://www.w3.org/2000/svg" version="1.1" viewBox="0 0 100 100">
  <!-- Generator: Adobe Illustrator 29.8.2, SVG Export Plug-In . SVG Version: 2.1.1 Build 3)  -->
  <defs>
    <style>
      .st0 {
        fill: #b0946b;
      }

      .st1 {
        fill: #b18850;
      }

      .st2 {
        fill: #887453;
      }

      .st3 {
        fill: #67593e;
      }

      .st4 {
        fill: #896a3d;
      }

      .st5 {
        fill: #6b532d;
      }
    </style>
  </defs>
  <rect class="st4" width="100" height="100" rx="6.34" ry="6.34"/>
  <g>
    <path class="st5" d="M6.34,0C2.84,0,0,2.84,0,6.34v87.32L50,0H6.34Z"/>
    <path class="st5" d="M93.66,0h-43.66l50,93.66V6.34c0-3.5-2.84-6.34-6.34-6.34Z"/>
  </g>
  <path class="st1" d="M0,6.34C0,2.84,2.84,0,6.34,0h87.32c3.5,0,6.34,2.84,6.34,6.34"/>
  <g>
    <path class="st4" d="M50,0H6.34C2.84,0,0,2.84,0,6.34"/>
    <path class="st4" d="M100,6.34c0-3.5-2.84-6.34-6.34-6.34h-43.66"/>
  </g>
  <path class="st0" d="M85.4,0H14.62c-3.5,0-6.34,2.84-6.34,6.34l5,60.76c0,3.5,2.84,6.34,6.34,6.34h60.77c3.5,0,6.34-2.84,6.34-6.34l5-60.76C91.73,2.84,88.89,0,85.39,0h.01Z"/>
  <path class="st2" d="M16.57,74.21h66.85c3.85,0,3.31-3.39,3.31-7.11l3.57-13.58-7.14-19.03-25.42,4.21v-7.4H17.3l-6.96,23.21,4.63,12.95c0,3.72-2.25,6.76,1.6,6.76h0Z"/>
  <polygon class="st3" points="57.93 20.24 79.1 21.43 81.42 25.53 59.85 23.27 57.93 20.24"/>
  <polygon class="st3" points="42.18 20.81 20.98 20.98 18.46 24.96 40.12 23.75 42.18 20.81"/>
  <path class="st0" d="M17.72,75.95h64.55c3.72,0,6.73-3.02,6.73-6.73l1.29-15.7-8.28-13.6-27.24,4.48-1.13-6.18-32.67-.48-11.11,17.99,1.11,13.49c0,3.72,3.02,6.73,6.73,6.73h.02Z"/>
  <path class="st3" d="M36.29,75.61c2.91-3.22,6.22-6.29,9.65-8.95l-.08.21c-.11-1.65-.35-3.29-.6-4.92-.29-1.68-.64-3.36-.91-5.05l.11-.15c3.28-4.48,6.92-9.02,10.75-13.05l.08.06c-.76,1.2-1.57,2.35-2.38,3.51-2.38,3.35-5.15,6.89-7.8,10l.09-.31c.18,1.64.27,3.3.43,4.95.19,1.68.39,3.36.73,5.02l-.1.1c-1.36,1.37-3.29,3.34-4.76,4.55-1.66,1.43-3.36,2.83-5.14,4.12l-.07-.07h0v-.02Z"/>
</svg>