<?xml version="1.0" encoding="UTF-8"?>
<svg id="Layer_1" xmlns="http://www.w3.org/2000/svg" version="1.1" viewBox="0 0 100 100">
  <!-- Generator: Adobe Illustrator 29.8.2, SVG Export Plug-In . SVG Version: 2.1.1 Build 3)  -->
  <defs>
    <style>
      .st0 {
        fill: #b0946b;
      }

      .st1 {
        fill: #b18850;
      }

      .st2 {
        fill: #887453;
      }

      .st3 {
        fill: #67593e;
      }

      .st4 {
        fill: #896a3d;
      }
    </style>
  </defs>
  <rect class="st1" width="100" height="100" rx="6.34" ry="6.34"/>
  <g>
    <path class="st4" d="M6.34,0C2.84,0,0,2.84,0,6.34v87.32L50,0H6.34Z"/>
    <path class="st4" d="M93.66,0h-43.66l50,93.66V6.34c0-3.5-2.84-6.34-6.34-6.34Z"/>
  </g>
  <path class="st0" d="M85.4,0H14.62c-3.5,0-6.34,2.84-6.34,6.34l5,60.76c0,3.5,2.84,6.34,6.34,6.34h20.72s0,0,0,0h9.66s.01,0,.01,0h9.66s.01,0,.01,0h20.71c3.5,0,6.34-2.84,6.34-6.34l5-60.76c0-3.5-2.84-6.34-6.34-6.34Z"/>
  <path class="st2" d="M16.57,74.21h22.79s0,0,0,0h10.63s.01,0,.01,0h10.63s.01,0,.01,0h22.78c3.85,0,3.31-3.39,3.31-7.11l3.57-13.58-7.14-19.03-25.42,4.21v-7.4H17.3l-6.96,23.21,4.63,12.95c0,3.72-2.25,6.76,1.6,6.76Z"/>
  <g>
    <polygon class="st3" points="57.74 22.89 78.65 19.41 81.82 22.89 60.28 25.43 57.74 22.89"/>
    <polygon class="st3" points="42.28 22.89 21.37 19.41 18.2 22.89 39.74 25.43 42.28 22.89"/>
  </g>
  <path class="st0" d="M17.72,75.95h22.01s0,0,0,0h10.26s.01,0,.01,0h10.26s.01,0,.01,0h22c3.72,0,6.73-3.02,6.73-6.73l1.29-15.7-8.28-17.29-25.58,4.21v-7.4H18.43l-8.55,22.7,1.11,13.49c0,3.72,3.02,6.73,6.73,6.73Z"/>
</svg>