<?xml version="1.0" encoding="UTF-8"?>
<svg id="Layer_1" xmlns="http://www.w3.org/2000/svg" version="1.1" viewBox="0 0 100 100">
  <!-- Generator: Adobe Illustrator 29.8.2, SVG Export Plug-In . SVG Version: 2.1.1 Build 3)  -->
  <defs>
    <style>
      .st0 {
        fill: #2c2c38;
      }

      .st1 {
        fill: #0f0e0d;
      }

      .st2 {
        fill: #f7d348;
      }

      .st3 {
        fill: #494958;
      }
    </style>
  </defs>
  <rect class="st3" width="100" height="100" rx="6.34" ry="6.34"/>
  <g>
    <path class="st0" d="M6.34,0C2.84,0,0,2.84,0,6.34v87.32L50,0H6.34Z"/>
    <path class="st0" d="M93.66,0h-43.66l50,93.66V6.34c0-3.5-2.84-6.34-6.34-6.34Z"/>
  </g>
  <rect class="st0" x="32.76" width="34.93" height="20.95"/>
  <path class="st1" d="M94.97,10.85c0-5.99-3.06-10.85-6.83-10.85h-7.95l-7.39,12.88-2.71-5.68-1.53,3.28-2.85-6.47-1.87,2.46-1.1-2.07-2.49,2.79h-20.49L33.36,0l-6.15,12.88L19.82,0h-7.95c-3.77,0-6.83,4.86-6.83,10.85l.4,7.65h7.36l-2.38,3.17,3.96,2.53-8.85-3.94,1.79,34.51c3.05-2.19,7.51-4.03,7.85,3.52,2.45-1.13,5.55-2.57,5.55-2.57l-5.55,4.52c-.05,1.33-.19,2.88-.45,4.67,0,0,12.55-5.83,4.35,12.13,1.29-.79,3.76-2.06,6.55-3.11,2.06-3.8,5.64-9.97,5.64-9.97l3.41,5.23,8.4-5.23-6.4,8.86c.55.28,1.03.67,1.4,1.17.73,1,1.45,2.02,2.15,3.05,5.5,8.07,9.8,10.56,9.8,10.56,0,0,4.3-2.49,9.8-10.56.7-1.03,1.42-2.05,2.15-3.05,1.18-1.6,3.34-2,5.82-1.76-.03-3.5-.09-7-.09-7l6.75,8.72c2.77,1.05,5.23,2.31,6.51,3.1-8.2-17.96,4.35-12.13,4.35-12.13-2.18-14.99,3.67-12.82,7.4-10.14l1.15-22.16-9.05-10.63h9.6l.58-11.14h-.02Z"/>
  <g>
    <path class="st2" d="M73.02,26.44s-4.77,7.68-10.73,3.68-6.14-8.25-6.14-8.25c0,0,9.99-2.24,16.87,4.57Z"/>
    <path class="st2" d="M31.25,24.2s.55,6.14,7.68,6.93,6.97-10.89,6.97-10.89c0,0-6.89,4.51-14.65,3.96Z"/>
  </g>
  <path class="st2" d="M63.45,38.37c-5.7-1.72-12.62-1.26-12.62-1.26,0,0-3.63-.24-7.79.28l-.68,1.26-.64-1.08c-1.17.19-2.36.44-3.5.79-5.7,1.72-6.97,7.42-6.97,7.42,0,0,1.63.23,6.89-.66l4.87-1.01c2.16-.25,5.84-1.41,8.14-1.43,2.29,0,6.93,1.71,9.09,1.96l4.1,1.49c5.26.89,5.25-.5,5.25-.5,0,0-.44-5.55-6.14-7.27h0Z"/>
</svg>