<?xml version="1.0" encoding="UTF-8"?>
<svg id="Layer_1" xmlns="http://www.w3.org/2000/svg" xmlns:xlink="http://www.w3.org/1999/xlink" version="1.1" viewBox="0 0 100 100">
  <!-- Generator: Adobe Illustrator 29.8.2, SVG Export Plug-In . SVG Version: 2.1.1 Build 3)  -->
  <defs>
    <style>
      .st0, .st1 {
        fill: none;
      }

      .st2 {
        fill: #231f20;
      }

      .st3 {
        fill: #72737a;
      }

      .st4 {
        fill: #31373c;
      }

      .st1 {
        stroke: #fff;
        stroke-miterlimit: 10;
        stroke-width: .5px;
      }

      .st5 {
        fill: #fff;
      }

      .st6 {
        fill: #1d2226;
      }

      .st7 {
        fill: #454c51;
      }

      .st8 {
        fill: #dc2826;
      }

      .st9 {
        clip-path: url(#clippath);
      }
    </style>
    <clipPath id="clippath">
      <polygon class="st0" points="28.09 64.44 27.06 45.28 73.1 44.73 71.92 64.44 28.09 64.44"/>
    </clipPath>
  </defs>
  <rect class="st7" width="100" height="100" rx="6.34" ry="6.34"/>
  <g>
    <path class="st4" d="M6.34,0C2.84,0,0,2.84,0,6.34v87.32L50,0H6.34Z"/>
    <path class="st4" d="M93.66,0h-43.66l50,93.66V6.34c0-3.5-2.84-6.34-6.34-6.34Z"/>
  </g>
  <path class="st3" d="M85.4,0H14.62c-3.5,0-6.34,2.84-6.34,6.34l5,60.76c0,3.5,2.84,6.34,6.34,6.34h60.77c3.5,0,6.34-2.84,6.34-6.34l5-60.76c0-3.5-2.84-6.34-6.34-6.34h.01Z"/>
  <polygon class="st4" points="22.09 64.44 17.53 9 82.48 9 77.92 64.44 22.09 64.44"/>
  <polygon class="st7" points="32.09 64.44 17.53 9 82.48 9 67.92 64.44 32.09 64.44"/>
  <polygon class="st6" points="28.09 64.44 27.06 45.28 73.1 44.73 71.92 64.44 28.09 64.44"/>
  <g>
    <path class="st5" d="M41.76,37.83c2.2,2.58,5.5,3.89,9.84,3.89,2.91,0,5.59-.6,7.17-1.05-.46.86-.6,1.75-.41,2.66.5,2.47,3.33,4.37,4.93,5.26-.72.36-1.26.9-1.61,1.62-1.2,2.45.2,6.32.92,7.98-.06,0-.12,0-.17,0-3.65,0-5.12,2.79-5.53,4.98-1.28-1.38-2.93-2.08-4.94-2.08-3.04,0-6.05,1.62-7.42,2.46-.53-3.44-5.56-5.19-7.64-5.77.71-.82,1.11-1.8,1.2-2.92.26-3.24-2.17-6.81-3.29-8.28,3.95-.8,5.65-3.42,6.37-5.55.4-1.17.55-2.31.6-3.18M41.24,36.27s.98,8.88-7.38,9.93c0,0,6.82,7.84,2.04,11.82,0,0,8.54,1.85,8.15,6.41,0,0,3.98-2.87,7.89-2.87,1.96,0,3.89.72,5.31,2.87,0,0,.06-5.76,5.16-5.76.31,0,.64.02.98.07,0,0-4.51-8.95,1.17-10.06,0,0-9.08-4.05-4.51-8.95,0,0-3.98,1.48-8.46,1.48-3.79,0-7.93-1.05-10.35-4.94h0Z"/>
    <path class="st5" d="M44.23,42.14c1.53,1.61,3.79,2.46,6.62,2.46,1.82,0,3.51-.34,4.62-.63-.21.52-.26,1.06-.15,1.61.33,1.63,2.07,2.9,3.21,3.57-.4.25-.71.6-.93,1.04-.8,1.63.02,4.13.53,5.38-2.36.06-3.4,1.77-3.76,3.25-.87-.84-1.98-1.27-3.29-1.27-1.98,0-3.95.99-4.97,1.59-.52-2.17-3.56-3.34-5.07-3.79.41-.55.65-1.18.71-1.9.17-2.14-1.31-4.46-2.14-5.59,3.58-.84,4.44-3.87,4.62-5.72M43.75,40.71s.67,6.09-5.06,6.8c0,0,4.67,5.37,1.4,8.1,0,0,5.85,1.27,5.58,4.39,0,0,2.73-1.97,5.4-1.97,1.34,0,2.67.49,3.64,1.97,0,0,.04-3.95,3.54-3.95.21,0,.44.01.67.05,0,0-3.09-6.13.8-6.89,0,0-6.22-2.77-3.09-6.13,0,0-2.72,1.01-5.8,1.01-2.59,0-5.43-.72-7.09-3.39h0Z"/>
    <path class="st5" d="M46.66,46.34c.86.72,2.03,1.09,3.44,1.09.83,0,1.61-.13,2.21-.26-.04.23-.02.44.01.61.17.85.95,1.52,1.58,1.93-.15.15-.25.3-.32.44-.42.86-.11,2.07.17,2.84-1.04.14-1.59.86-1.85,1.58-.47-.35-1.04-.53-1.68-.53-.99,0-1.97.43-2.59.76-.42-1-1.7-1.58-2.55-1.87.15-.27.23-.57.26-.89.09-1.09-.55-2.24-1.02-2.94,1.49-.48,2.13-1.69,2.33-2.78M46.23,45.08s.37,3.33-2.76,3.72c0,0,2.56,2.94.76,4.43,0,0,3.2.69,3.05,2.4,0,0,1.49-1.07,2.95-1.07.73,0,1.46.27,1.99,1.07,0,0,.02-2.16,1.93-2.16.12,0,.24,0,.37.02,0,0-1.69-3.35.44-3.77,0,0-3.4-1.52-1.69-3.35,0,0-1.49.55-3.17.55-1.42,0-2.97-.39-3.88-1.85h0Z"/>
    <polyline class="st1" points="40.65 35.49 49.64 50.71 62.34 37.19"/>
    <polyline class="st1" points="35.9 58.03 49.64 50.71 33.86 46.2"/>
    <polyline class="st1" points="57.25 64.44 49.64 50.71 44.05 64.44"/>
    <polyline class="st1" points="64.56 48.68 49.64 50.71 63.39 58.75"/>
  </g>
  <g class="st9">
    <g>
      <path class="st2" d="M57.09,44.65c-.03.61,0,1.2.03,1.8.11,1.65.62,3.92,1.03,5.17-.79.51-1.59,1-2.32,1.59-.13-.34-.29-.66-.48-.95.42-.5.83-1,1.37-1.39-.74-.68-1.48-1.35-2.29-1.94l1.88,1.96c-.37.38-.77.72-1.18,1.05-.43-.58-.97-1.07-1.62-1.42-2.95-1.6-7.01.15-9.05,3.91s-1.31,8.12,1.64,9.72c.67.37,1.4.55,2.15.58-.49,1.24-.72,2.56-1.08,3.85l.14.23c.46-1.37,1.1-2.67,1.43-4.08.15,0,.31-.02.46-.04-.3,1.06-.46,2.16-.5,3.27-.04.48-.13.95-.25,1.42-2.04,1.16-3.99,2.47-5.63,4.16,0,0,.04.05.04.05,2.17-1.03,4.04-2.49,5.82-4.07.22-1.65.83-3.23.95-4.89.38-.08.75-.19,1.12-.33-.23.9-.36,1.81-.35,2.74.07,1.26-.3,2.47-.53,3.69.57,1.6,1.29,3.23,2.24,4.64l.06-.02c-.09-.42-.21-.83-.33-1.24-.34-1.16-.88-2.37-1.42-3.46.04-.58.02-1.17.06-1.75.18-1.59.69-3.14.65-4.76.26-.12.51-.25.76-.4-.13.88-.07,1.76.11,2.64h.23c.16-.95.17-1.89-.03-2.83.17-.11.34-.24.51-.37-.2,1.51.11,2.72.94,3.17,1.44.79,3.92-.97,5.52-3.93s1.73-5.98.29-6.77c-.68-.37-1.58-.17-2.52.45.18-.16.35-.33.51-.52l.84-1.09c-.62.54-1.34.94-1.97,1.45,0-.28,0-.55-.03-.82.54-.43,1.04-.9,1.48-1.45.65-.9,1.52-1.54,2.38-2.21,1.04.56,2.1,1.08,3.22,1.44.39.13.78.26,1.19.35l.03-.06c-.33-.25-.68-.47-1.03-.69-1.1-.69-2.29-1.2-3.5-1.68-.44.46-.82.97-1.25,1.43-.83.79-1.78,1.47-2.59,2.27-.05-.27-.11-.54-.19-.8.82-.59,1.55-1.3,2.3-1.98-.21-1.79-.18-3.62-.65-5.37-.14-.58-.3-1.16-.51-1.73,0,0-.06,0-.06,0Z"/>
      <path class="st8" d="M57.39,59.9l2.09-3.15s1.48,2.7-2.09,3.15Z"/>
      <path class="st8" d="M54.68,65.44l1.35-3.39s2.08,2.61-1.35,3.39Z"/>
    </g>
  </g>
</svg>