<?xml version="1.0" encoding="UTF-8"?>
<svg xmlns="http://www.w3.org/2000/svg" version="1.1" viewBox="0 0 100 100">
  <!-- Generator: Adobe Illustrator 29.8.2, SVG Export Plug-In . SVG Version: 2.1.1 Build 3)  -->
  <defs>
    <style>
      .st0 {
        mix-blend-mode: color-burn;
      }

      .st0, .st1 {
        fill: #8d4c14;
      }

      .st2 {
        fill: #ffdc2d;
      }

      .st3 {
        isolation: isolate;
      }

      .st4 {
        fill: #ae5f21;
      }

      .st5 {
        fill: #f6883c;
      }

      .st6 {
        fill: #c1651b;
      }
    </style>
  </defs>
  <g class="st3">
    <g id="Layer_1">
      <rect class="st4" width="100" height="100" rx="6.34" ry="6.34"/>
      <g>
        <path class="st1" d="M6.34,0C2.84,0,0,2.84,0,6.34v87.32L50,0H6.34Z"/>
        <path class="st1" d="M93.66,0h-43.66l50,93.66V6.34c0-3.5-2.84-6.34-6.34-6.34Z"/>
      </g>
      <path class="st5" d="M85.4,0H14.62c-3.5,0-6.34,2.84-6.34,6.34l5,60.76c0,3.5,2.84,6.34,6.34,6.34h60.77c3.5,0,6.34-2.84,6.34-6.34l5-60.76C91.73,2.84,88.89,0,85.39,0h.01Z"/>
      <path class="st6" d="M48.72,7.69c-4.36-4.1-10.85-5.12-16.48-6.5,5.86,0,13,1.29,16.48,6.5h0Z"/>
      <path class="st6" d="M48.72,7.69c-12.15,1.52-24.38,5.9-33.49,14.29-1.33,1.1-2.52,2.56-3.74,3.77C19.84,14,34.59,7.98,48.72,7.69h0Z"/>
      <path class="st6" d="M48.72,7.69c-13.29,15.53-22.66,36.39-19.07,57.11.41,2.94,1.27,5.79,2.12,8.65-9.43-22.71.47-48.97,16.95-65.75h0Z"/>
      <path class="st6" d="M48.72,7.69c4.01-4.89,16.76-5.69,22.85-5.89,1.15.01,2.29-.01,3.43.03-6.75.96-13.56,1.5-20.18,3.14-2.12.62-4.48,1.12-6.1,2.72h0Z"/>
      <path class="st6" d="M48.72,7.69c5.15,3.63,9.26,8.65,13.01,13.67,9.24,12.7,15.68,27.56,20.7,42.39.91,3.02,1.85,6.03,2.72,9.05-1.09-2.96-2.12-5.93-3.19-8.89-4.94-13.1-10.72-26.38-18.26-38.19-4.28-6.54-8.9-13.05-14.99-18.03h0Z"/>
      <path class="st6" d="M48.72,7.69c7.34-.9,14.73,1.35,21.52,3.95,4.97,1.91,10.16,4.71,14.75,7.45,1.54,1.01,3.09,1.99,4.6,3.02-1.63-.84-3.23-1.73-4.84-2.59-4.71-2.46-9.95-5.04-14.87-6.94-6.74-2.6-13.85-5.01-21.15-4.88h0Z"/>
      <polygon class="st2" points="21.55 43.29 22.62 25.75 45.79 19.77 21.55 43.29"/>
      <polygon class="st2" points="77.98 41.75 76.68 25.75 58.97 22.1 77.98 41.75"/>
      <polygon class="st2" points="44.74 49.1 48.71 37.88 54.95 50.56 48.43 47.96 44.74 49.1"/>
      <polygon class="st0" points="90.19 25.01 80 33.79 89.59 29.86 93.19 34.97 97.94 33.08 93.43 30.55 90.19 25.01"/>
      <polygon class="st0" points="10.48 33.08 15.37 35.57 10.48 35.57 2.06 44.48 10.48 33.08"/>
      <polygon class="st0" points="60.04 38.78 55.77 64.91 61.86 63.5 52.91 73.44 56.24 82.5 54.34 95.33 64.56 80.12 59.57 76.44 59.67 73.44 70.85 59.92 60.87 58.85 60.04 38.78"/>
      <path class="st2" d="M20.36,69.67c.27.06,5.04-.66,14.4-2.77l-.15-2.81,5.22-.28.12,2.15c4.18-2.23,6.69-3.72,12.38-4.02,3.87-.21,6.53.73,12.04,2.29l-.12-2.21,5.22-.28.15,2.79c10.06.91,12.42,4.08,12.42,4.08,0,0-.07-13.6-27.17-12.92l.13,2.45-7.12.39-.13-2.38c-24.54,2.68-27.38,13.53-27.38,13.53Z"/>
    </g>
  </g>
</svg>