<?xml version="1.0" encoding="UTF-8"?>
<svg id="Layer_1" xmlns="http://www.w3.org/2000/svg" version="1.1" viewBox="0 0 100 100">
  <!-- Generator: Adobe Illustrator 29.8.2, SVG Export Plug-In . SVG Version: 2.1.1 Build 3)  -->
  <defs>
    <style>
      .st0 {
        fill: #4b5473;
      }

      .st1 {
        fill: #c5e7e7;
      }

      .st2 {
        fill: #729ca0;
      }

      .st3 {
        opacity: .6;
      }

      .st4 {
        fill: #363d56;
      }
    </style>
  </defs>
  <g class="st3">
    <rect class="st0" width="100" height="100" rx="6.34" ry="6.34"/>
    <g>
      <path class="st4" d="M6.34,0C2.84,0,0,2.84,0,6.34v87.32L50,0H6.34Z"/>
      <path class="st4" d="M93.66,0h-43.66l50,93.66V6.34c0-3.5-2.84-6.34-6.34-6.34Z"/>
    </g>
    <path class="st1" d="M85.39,0H14.62c-3.5,0-6.34,2.84-6.34,6.34l5,60.76s0,.07,0,.1c.08,4.66,6.32,6.26,8.82,2.32l2.3-3.63c.36-.57.6-1.21.69-1.87,1.6-11.9,10.2-7.48,9.85-2.73-.22,2.96-2.43,8.09-.59,11.76,1.18,2.36,4.54,4.79,6.36,4.69,1.27-.07,2.59-3.6,2.79-5.88.54-6.07,1.65-11.44,5.7-11.52,4.43-.09,7.36,11.19,8.91,16.34.4,1.33,1,2.21,1.96,2.29,1.28.1,2.09-.85,2.71-2.29,1.61-3.77-3.83-16.08-.38-16.34,2.94-.22,7.01,11.16,8.03,15.89.64,2.93,1.43,5.13,3.02,4.54,1.34-.5,1.95-2.32,2.28-4.54.69-4.66-.52-13.86,1.82-13.46,3.45.59.35,12.21,5.11,12,3.5,0,4.07-4.18,4.07-7.68l5-60.76c0-3.5-2.84-6.34-6.34-6.34Z"/>
    <ellipse class="st2" cx="29.22" cy="27.83" rx="6.53" ry="11.21"/>
    <ellipse class="st2" cx="68.44" cy="28.85" rx="7.49" ry="12.24"/>
  </g>
</svg>