<?xml version="1.0" encoding="UTF-8"?>
<svg id="Layer_1" xmlns="http://www.w3.org/2000/svg" version="1.1" viewBox="0 0 100 100">
  <!-- Generator: Adobe Illustrator 29.8.2, SVG Export Plug-In . SVG Version: 2.1.1 Build 3)  -->
  <defs>
    <style>
      .st0 {
        fill: #606161;
      }

      .st1 {
        fill: #231f20;
      }

      .st2 {
        fill: #fff;
      }

      .st3 {
        fill: #494b4b;
      }
    </style>
  </defs>
  <rect class="st0" width="100" height="100" rx="6.34" ry="6.34"/>
  <g>
    <path class="st3" d="M6.34,0C2.84,0,0,2.84,0,6.34v87.32L50,0H6.34Z"/>
    <path class="st3" d="M93.66,0h-43.66l50,93.66V6.34c0-3.5-2.84-6.34-6.34-6.34Z"/>
  </g>
  <path class="st2" d="M85.4,0H14.62c-3.5,0-6.34,2.84-6.34,6.34l5,60.76c0,3.5,2.84,6.34,6.34,6.34l15.81-12.68,2.38,4.12-4.44,2.22,6.97,6.35,4.28-5.4,5.39,5.4,5.39-5.4,6.81-3.17,2.38-4.12,15.81,12.68c3.5,0,6.34-2.84,6.34-6.34l5-60.76c0-3.5-2.84-6.34-6.34-6.34Z"/>
  <path class="st1" d="M63.44,29.03l31.75,14.53s-10.04,10.31-20.19,5.82c-10.15-4.49-11.56-20.35-11.56-20.35Z"/>
  <path class="st1" d="M36.21,28.66l-31.31,15.46s10.34,10.01,20.35,5.22c10.01-4.79,10.96-20.69,10.96-20.69Z"/>
  <g>
    <path class="st1" d="M48.32,50.41l-6.05,7.93s3.92,1.25,5.87-1.25.18-6.69.18-6.69h0Z"/>
    <path class="st1" d="M51.68,50.41l6.05,7.93s-3.92,1.25-5.87-1.25c-1.96-2.5-.18-6.69-.18-6.69h0Z"/>
  </g>
  <path class="st1" d="M50,.77c-1.87,2.25-5.65,6.73-7.54,8.96,0,0,.02-.31.02-.31,0,0,5.42,8.13,5.42,8.13,0,0,.06.09.06.09.09,3.2.13,6.4.19,9.6,0,0,.16,9.48.16,9.48v.23c-6.17,4.93-13.65,11.34-19.25,15.45,0,0-.89,4.86-.89,4.86l-.04.2c-4.48,1.09-10.8,2.41-15.36,3.44,4.46-1.25,10.61-2.85,15.02-3.99,0,0-.23.25-.23.25l.77-4.88.02-.13c6.35-5.31,12.75-10.56,19.17-15.8,0,0-.18.39-.18.39,0,0-.08-9.48-.08-9.48.06-2.84-.2-7.24,0-9.28,0,0-5.21-8.27-5.21-8.27,0,0-.11-.17-.11-.17l.13-.14c1.96-2.14,5.94-6.49,7.92-8.62h0Z"/>
  <path class="st1" d="M86.88,64.99c-3.67-4.19-7.07-8.58-10.15-13.21,0,0,.2.1.2.1-4.44-.26-8.87.04-13.31.17,0,0-.16,0-.16,0l-.13-.12c-5.24-4.69-10.8-9.99-15.55-15.17,0,0,.07-.07.07-.07,1.42,1.14,2.79,2.32,4.16,3.5,3.82,3.32,8.31,7.55,11.9,11.12,0,0-.29-.11-.29-.11,4.47.12,8.95.43,13.42.16,3.49,4.29,7.2,8.93,9.83,13.63h0Z"/>
  <path class="st1" d="M89.44,34.06c-4.43-2.15-8.7-4.59-12.76-7.37,0,0,.23.02.23.02-3.77,1.24-7.32,3-10.95,4.59,0,0-.14.06-.14.06l-.16-.06c-4.24-1.47-9.35-3.43-13.46-5.23-5.66-2.49-5.83-2.66.25-.66,4.26,1.41,9.37,3.36,13.51,5.1,0,0-.31,0-.31,0,3.75-1.38,7.57-2.59,11.17-4.34,4.31,2.31,8.96,4.87,12.62,7.88h0Z"/>
  <path class="st1" d="M24.65,4.85c-1.88,1.75-3.78,3.47-5.7,5.18-1.74,1.56-4.1,3.83-6.21,4.56,1.62-2.04,3.6-3.67,5.7-5.18,2.03-1.57,4.08-3.12,6.15-4.64,0,0,.06.08.06.08h0Z"/>
  <path class="st1" d="M26.26,6.46c-1.88,1.75-3.78,3.47-5.7,5.18-1.74,1.56-4.1,3.83-6.21,4.56,1.62-2.04,3.6-3.67,5.7-5.18,2.03-1.57,4.08-3.12,6.15-4.64,0,0,.06.08.06.08h0Z"/>
  <path class="st1" d="M28.28,8.48c-1.88,1.75-3.78,3.47-5.7,5.18-1.74,1.56-4.1,3.83-6.21,4.56,1.62-2.04,3.6-3.67,5.7-5.18,2.03-1.57,4.08-3.12,6.15-4.64,0,0,.06.08.06.08h0Z"/>
  <path class="st1" d="M76.2,28.61c1.51-3.17,3.05-6.32,4.61-9.46,1.53-3.08,3.09-6.6,5.31-9.08-1.16,3.34-2.81,6.43-4.61,9.46-1.77,2.95-3.42,6.41-5.31,9.08h0Z"/>
  <path class="st1" d="M73.31,27.42c1.51-3.17,3.05-6.32,4.61-9.46,1.53-3.08,3.09-6.6,5.31-9.08-1.16,3.34-2.81,6.43-4.61,9.46-1.77,2.95-3.42,6.41-5.31,9.08h0Z"/>
  <path class="st1" d="M69.72,25.92c1.51-3.17,3.05-6.32,4.61-9.46,1.53-3.08,3.09-6.6,5.31-9.08-1.16,3.34-2.81,6.43-4.61,9.46-1.77,2.95-3.42,6.41-5.31,9.08h0Z"/>
</svg>