<?xml version="1.0" encoding="UTF-8"?>
<svg id="Layer_1" xmlns="http://www.w3.org/2000/svg" version="1.1" viewBox="0 0 100 100">
  <!-- Generator: Adobe Illustrator 29.8.2, SVG Export Plug-In . SVG Version: 2.1.1 Build 3)  -->
  <defs>
    <style>
      .st0 {
        fill: #606161;
      }

      .st1 {
        opacity: .8;
      }

      .st1, .st2, .st3, .st4, .st5 {
        fill: #4096d2;
      }

      .st2 {
        opacity: .6;
      }

      .st3 {
        opacity: .4;
      }

      .st4 {
        opacity: .7;
      }

      .st6, .st7 {
        opacity: .75;
      }

      .st8, .st9, .st10, .st7 {
        fill: #81d0d6;
      }

      .st9 {
        opacity: .5;
      }

      .st10 {
        opacity: .55;
      }
    </style>
  </defs>
  <g class="st6">
    <polygon class="st8" points="77.22 24.18 77.6 23.93 76.67 23.86 77.22 24.18"/>
    <polygon class="st8" points="69.86 3.6 31.79 8.16 35.56 16.71 50.53 8.32 76.67 23.86 77.6 23.93 82.64 20.67 69.86 3.6"/>
    <polygon class="st9" points="31.79 8.16 19.74 9.6 15.79 18.83 29.72 19.98 35.56 16.71 31.79 8.16"/>
    <polygon class="st8" points="77.6 23.93 85.58 24.59 82.64 20.67 77.6 23.93"/>
    <polygon class="st8" points="13.7 65.33 14.17 28.7 29.72 19.98 15.79 18.83 0 55.74 0 56.16 9.1 68.31 13.7 65.33"/>
    <polygon class="st10" points="13.64 70.38 13.7 65.33 9.1 68.31 30.14 96.4 68.68 91.78 64.84 83.07 49.47 91.68 13.64 70.38"/>
    <polygon class="st7" points="85.58 24.59 77.6 23.93 77.22 24.18 86.36 29.62 85.83 71.3 64.84 83.07 68.68 91.78 80.26 90.4 100 44.26 100 43.84 85.58 24.59"/>
    <polygon class="st4" points="100 43.84 100 25.78 85.58 24.59 100 43.84"/>
    <polygon class="st5" points="85.58 24.59 100 25.78 100 9.42 82.64 20.67 85.58 24.59"/>
    <polygon class="st3" points="0 17.53 0 55.74 15.79 18.83 0 17.53"/>
    <path class="st5" d="M19.74,9.6l12.05-1.44L28.19,0H6.34C2.84,0,0,2.84,0,6.34v11.19l15.79,1.3,3.95-9.23Z"/>
    <path class="st2" d="M69.86,3.6l12.78,17.07,17.36-11.25v-3.08c0-3.5-2.84-6.34-6.34-6.34H28.19l3.6,8.16,38.06-4.56Z"/>
    <path class="st5" d="M68.68,91.78l3.62,8.22h21.35c3.5,0,6.34-2.84,6.34-6.34v-49.4l-19.74,46.14-11.58,1.39Z"/>
    <path class="st1" d="M30.14,96.4l-21.04-28.09-9.1,5.9v19.45c0,3.5,2.84,6.34,6.34,6.34h65.97l-3.62-8.22-38.54,4.62Z"/>
    <polygon class="st5" points="0 56.16 0 74.21 9.1 68.31 0 56.16"/>
    <polygon class="st0" points="-.11 56.01 0 56.16 0 55.74 -.11 56.01"/>
    <polygon class="st0" points="100 44.26 100.11 43.99 100 43.84 100 44.26"/>
  </g>
</svg>