<?xml version="1.0" encoding="UTF-8"?>
<svg id="Layer_1" xmlns="http://www.w3.org/2000/svg" version="1.1" viewBox="0 0 100 100">
  <!-- Generator: Adobe Illustrator 29.8.2, SVG Export Plug-In . SVG Version: 2.1.1 Build 3)  -->
  <defs>
    <style>
      .st0 {
        fill: #c02026;
      }

      .st1 {
        opacity: .7;
      }

      .st2 {
        fill: #f2ac1d;
        opacity: .5;
      }
    </style>
  </defs>
  <path class="st2" d="M93.66,0H6.34C2.84,0,0,2.84,0,6.34v87.32c0,3.5,2.84,6.34,6.34,6.34h87.32c3.5,0,6.34-2.84,6.34-6.34V6.34c0-3.5-2.84-6.34-6.34-6.34ZM73.72,58.27c38.56,10.94-5.21,55.05-16.58,16.71,11.37,38.34-50.71,20.73-23.52-6.67-27.19,27.4-45.49-34.32-6.93-23.38-38.56-10.94,5.21-55.05,16.58-16.71-11.37-38.34,50.71-20.73,23.52,6.67,27.19-27.4,45.49,34.32,6.93,23.38Z"/>
  <g class="st1">
    <path class="st0" d="M41.98,76.08c-15.99,40.33-61.79-15.39-17.35-21.11C-19.81,60.69,5.93-4.23,34.38,30.38,5.93-4.23,77.47-13.44,61.48,26.89c15.99-40.33,61.79,15.39,17.35,21.11,11.06-1.42,17.77,1.53,21.17,6.23V6.34c0-3.5-2.84-6.34-6.34-6.34H6.34C2.84,0,0,2.84,0,6.34v87.32c0,3.5,2.84,6.34,6.34,6.34h40.38c-6.25-3.71-9.69-11.44-4.74-23.92Z"/>
    <path class="st0" d="M69.08,72.6c11.04,13.43,7.02,23.03-1.1,27.4h25.68c3.5,0,6.34-2.84,6.34-6.34v-19.85c-5.4,9.59-17.87,14.67-30.92-1.21Z"/>
  </g>
</svg>