<?xml version="1.0" encoding="UTF-8"?>
<svg id="Layer_1" xmlns="http://www.w3.org/2000/svg" version="1.1" viewBox="0 0 100 100">
  <!-- Generator: Adobe Illustrator 29.8.2, SVG Export Plug-In . SVG Version: 2.1.1 Build 3)  -->
  <defs>
    <style>
      .st0, .st1 {
        fill: #691008;
      }

      .st1 {
        opacity: .9;
      }

      .st2 {
        opacity: .75;
      }
    </style>
  </defs>
  <g class="st2">
    <path class="st1" d="M75.32,36.18c.8-.72,1.85-1.13,2.93-1.12,4.66.04,9.48-4.14,11.46-10.36,2.29-7.21-.12-14.4-5.37-16.07s-11.36,2.82-13.65,10.03c-.34,1.07-.57,2.14-.71,3.19-.22,1.71-1.28,3.17-2.7,4.15-2.25,1.55-3.55,4.52-2.39,8.14.07.2.17.4.3.57,2.98,3.95,7.48,3.85,10.13,1.47Z"/>
    <path class="st1" d="M48,22.63c-1.62-.37-3.07-1.33-4.02-2.7-4.08-5.91-13.64-8.28-23.23-5.25-11.12,3.51-18.05,12.93-15.49,21.03,2.56,8.1,13.65,11.82,24.76,8.3,1.65-.52,3.21-1.18,4.66-1.94,2.36-1.24,5.13-1.2,7.63-.28,3.94,1.46,8.86.47,12.39-4.22.2-.26.36-.57.46-.88,2.34-7.27-1.79-12.85-7.15-14.07Z"/>
    <g>
      <path class="st0" d="M9.59,11.28c1.86-.62,3.74-.69,5.61-.28,1.77.66,3.54,1.3,5.46,1.19,1.65.03,3.98-.13,5.59-.16,1.89.11,3.72.51,5.45,1.38v.1c-2.79.81-5.62.47-8.34-.34l-2.73-.57c-1.87-.48-3.73-.18-5.59.13-1.91.05-3.74-.38-5.45-1.35v-.1h0Z"/>
      <path class="st0" d="M3.67,12.94c1.86-.62,3.74-.69,5.61-.28,1.77.66,3.54,1.3,5.46,1.19,1.65.03,3.98-.13,5.59-.16,1.89.11,3.72.51,5.45,1.38v.1c-2.79.81-5.62.47-8.34-.34l-2.73-.57c-1.87-.48-3.73-.18-5.59.13-1.91.05-3.74-.38-5.45-1.35v-.1h0Z"/>
      <path class="st0" d="M10.14,15.97c1.86-.62,3.74-.69,5.61-.28,1.77.66,3.54,1.3,5.46,1.19,1.65.03,3.98-.13,5.59-.16,1.89.11,3.72.51,5.45,1.38v.1c-2.79.81-5.62.47-8.34-.34l-2.73-.57c-1.87-.48-3.73-.18-5.59.13-1.91.05-3.74-.38-5.45-1.35v-.1h0Z"/>
      <path class="st0" d="M4.92,17.78c1.86-.62,3.74-.69,5.61-.28,1.77.66,3.54,1.3,5.46,1.19,1.65.03,3.98-.13,5.59-.16,1.89.11,3.72.51,5.45,1.38v.1c-2.79.81-5.62.47-8.34-.34l-2.73-.57c-1.87-.48-3.73-.18-5.59.13-1.91.05-3.74-.38-5.45-1.35v-.1h0Z"/>
    </g>
    <g>
      <path class="st0" d="M72.52,6.61c1.88-.54,3.77-.53,5.62-.04,1.74.74,3.48,1.45,5.4,1.42,1.65.1,3.98.04,5.59.08,1.88.19,3.69.67,5.39,1.61v.1c-2.83.69-5.64.23-8.32-.7l-2.7-.69c-1.85-.56-3.72-.34-5.59-.11-1.91-.03-3.72-.54-5.39-1.58v-.1s0,0,0,0Z"/>
      <path class="st0" d="M66.54,8.01c1.88-.54,3.77-.53,5.62-.04,1.74.74,3.48,1.45,5.4,1.42,1.65.1,3.98.04,5.59.08,1.88.19,3.69.67,5.39,1.61v.1c-2.83.69-5.64.23-8.32-.7l-2.7-.69c-1.85-.56-3.72-.34-5.59-.11-1.91-.03-3.72-.54-5.39-1.58v-.1s0,0,0,0Z"/>
      <path class="st0" d="M72.87,11.31c1.88-.54,3.77-.53,5.62-.04,1.74.74,3.48,1.45,5.4,1.42,1.65.1,3.98.04,5.59.08,1.88.19,3.69.67,5.39,1.61v.1c-2.83.69-5.64.23-8.32-.7l-2.7-.69c-1.85-.56-3.72-.34-5.59-.11-1.91-.03-3.72-.54-5.39-1.58v-.1s0,0,0,0Z"/>
      <path class="st0" d="M67.57,12.91c1.88-.54,3.77-.53,5.62-.04,1.74.74,3.48,1.45,5.4,1.42,1.65.1,3.98.04,5.59.08,1.88.19,3.69.67,5.39,1.61v.1c-2.83.69-5.64.23-8.32-.7l-2.7-.69c-1.85-.56-3.72-.34-5.59-.11-1.91-.03-3.72-.54-5.39-1.58v-.1s0,0,0,0Z"/>
    </g>
    <g>
      <path class="st0" d="M23.89,46.55c1.86-.62,3.74-.69,5.61-.28,1.77.66,3.54,1.3,5.46,1.19,1.65.03,3.98-.13,5.59-.16,1.89.11,3.72.51,5.45,1.38v.1c-2.79.81-5.62.47-8.34-.34l-2.73-.57c-1.87-.48-3.73-.18-5.59.13-1.91.05-3.74-.38-5.45-1.35v-.1h0Z"/>
      <path class="st0" d="M17.96,48.21c1.86-.62,3.74-.69,5.61-.28,1.77.66,3.54,1.3,5.46,1.19,1.65.03,3.98-.13,5.59-.16,1.89.11,3.72.51,5.45,1.38v.1c-2.79.81-5.62.47-8.34-.34l-2.73-.57c-1.87-.48-3.73-.18-5.59.13-1.91.05-3.74-.38-5.45-1.35v-.1h0Z"/>
      <path class="st0" d="M24.44,51.24c1.86-.62,3.74-.69,5.61-.28,1.77.66,3.54,1.3,5.46,1.19,1.65.03,3.98-.13,5.59-.16,1.89.11,3.72.51,5.45,1.38v.1c-2.79.81-5.62.47-8.34-.34l-2.73-.57c-1.87-.48-3.73-.18-5.59.13-1.91.05-3.74-.38-5.45-1.35v-.1h0Z"/>
      <path class="st0" d="M19.21,53.05c1.86-.62,3.74-.69,5.61-.28,1.77.66,3.54,1.3,5.46,1.19,1.65.03,3.98-.13,5.59-.16,1.89.11,3.72.51,5.45,1.38v.1c-2.79.81-5.62.47-8.34-.34l-2.73-.57c-1.87-.48-3.73-.18-5.59.13-1.91.05-3.74-.38-5.45-1.35v-.1h0Z"/>
    </g>
    <g>
      <path class="st0" d="M61.33,55.18c1.86-.62,3.74-.69,5.61-.28,1.77.66,3.54,1.3,5.46,1.19,1.65.03,3.98-.13,5.59-.16,1.89.11,3.72.51,5.45,1.38v.1c-2.79.81-5.62.47-8.34-.34l-2.73-.57c-1.87-.48-3.73-.18-5.59.13-1.91.05-3.74-.38-5.45-1.35v-.1h0Z"/>
      <path class="st0" d="M55.41,56.84c1.86-.62,3.74-.69,5.61-.28,1.77.66,3.54,1.3,5.46,1.19,1.65.03,3.98-.13,5.59-.16,1.89.11,3.72.51,5.45,1.38v.1c-2.79.81-5.62.47-8.34-.34l-2.73-.57c-1.87-.48-3.73-.18-5.59.13-1.91.05-3.74-.38-5.45-1.35v-.1h0Z"/>
      <path class="st0" d="M61.88,59.87c1.86-.62,3.74-.69,5.61-.28,1.77.66,3.54,1.3,5.46,1.19,1.65.03,3.98-.13,5.59-.16,1.89.11,3.72.51,5.45,1.38v.1c-2.79.81-5.62.47-8.34-.34l-2.73-.57c-1.87-.48-3.73-.18-5.59.13-1.91.05-3.74-.38-5.45-1.35v-.1h0Z"/>
      <path class="st0" d="M56.66,61.68c1.86-.62,3.74-.69,5.61-.28,1.77.66,3.54,1.3,5.46,1.19,1.65.03,3.98-.13,5.59-.16,1.89.11,3.72.51,5.45,1.38v.1c-2.79.81-5.62.47-8.34-.34l-2.73-.57c-1.87-.48-3.73-.18-5.59.13-1.91.05-3.74-.38-5.45-1.35v-.1h0Z"/>
    </g>
    <g>
      <path class="st0" d="M17.41,77.88c1.86-.62,3.74-.69,5.61-.28,1.77.66,3.54,1.3,5.46,1.19,1.65.03,3.98-.13,5.59-.16,1.89.11,3.72.51,5.45,1.38v.1c-2.79.81-5.62.47-8.34-.34l-2.73-.57c-1.87-.48-3.73-.18-5.59.13-1.91.05-3.74-.38-5.45-1.35v-.1h0Z"/>
      <path class="st0" d="M11.49,79.54c1.86-.62,3.74-.69,5.61-.28,1.77.66,3.54,1.3,5.46,1.19,1.65.03,3.98-.13,5.59-.16,1.89.11,3.72.51,5.45,1.38v.1c-2.79.81-5.62.47-8.34-.34l-2.73-.57c-1.87-.48-3.73-.18-5.59.13-1.91.05-3.74-.38-5.45-1.35v-.1h0Z"/>
      <path class="st0" d="M17.96,82.57c1.86-.62,3.74-.69,5.61-.28,1.77.66,3.54,1.3,5.46,1.19,1.65.03,3.98-.13,5.59-.16,1.89.11,3.72.51,5.45,1.38v.1c-2.79.81-5.62.47-8.34-.34l-2.73-.57c-1.87-.48-3.73-.18-5.59.13-1.91.05-3.74-.38-5.45-1.35v-.1h0Z"/>
      <path class="st0" d="M12.74,84.39c1.86-.62,3.74-.69,5.61-.28,1.77.66,3.54,1.3,5.46,1.19,1.65.03,3.98-.13,5.59-.16,1.89.11,3.72.51,5.45,1.38v.1c-2.79.81-5.62.47-8.34-.34l-2.73-.57c-1.87-.48-3.73-.18-5.59.13-1.91.05-3.74-.38-5.45-1.35v-.1h0Z"/>
    </g>
    <g>
      <path class="st0" d="M72.39,72.55c1.86-.62,3.74-.69,5.61-.28,1.77.66,3.54,1.3,5.46,1.19,1.65.03,3.98-.13,5.59-.16,1.89.11,3.72.51,5.45,1.38v.1c-2.79.81-5.62.47-8.34-.34l-2.73-.57c-1.87-.48-3.73-.18-5.59.13-1.91.05-3.74-.38-5.45-1.35v-.1h0Z"/>
      <path class="st0" d="M66.46,74.2c1.86-.62,3.74-.69,5.61-.28,1.77.66,3.54,1.3,5.46,1.19,1.65.03,3.98-.13,5.59-.16,1.89.11,3.72.51,5.45,1.38v.1c-2.79.81-5.62.47-8.34-.34l-2.73-.57c-1.87-.48-3.73-.18-5.59.13-1.91.05-3.74-.38-5.45-1.35v-.1h0Z"/>
      <path class="st0" d="M72.94,77.23c1.86-.62,3.74-.69,5.61-.28,1.77.66,3.54,1.3,5.46,1.19,1.65.03,3.98-.13,5.59-.16,1.89.11,3.72.51,5.45,1.38v.1c-2.79.81-5.62.47-8.34-.34l-2.73-.57c-1.87-.48-3.73-.18-5.59.13-1.91.05-3.74-.38-5.45-1.35v-.1h0Z"/>
      <path class="st0" d="M67.71,79.05c1.86-.62,3.74-.69,5.61-.28,1.77.66,3.54,1.3,5.46,1.19,1.65.03,3.98-.13,5.59-.16,1.89.11,3.72.51,5.45,1.38v.1c-2.79.81-5.62.47-8.34-.34l-2.73-.57c-1.87-.48-3.73-.18-5.59.13-1.91.05-3.74-.38-5.45-1.35v-.1h0Z"/>
    </g>
    <g>
      <path class="st0" d="M88.15,30.59c-.19,1.53-.79,2.89-1.72,4.08-1.07,1.03-2.13,2.07-2.71,3.48-.58,1.16-1.27,2.87-1.79,4.03-.72,1.31-1.63,2.47-2.84,3.4l-.07-.03c.38-2.26,1.58-4.16,3.09-5.81l1.34-1.75c.98-1.17,1.4-2.59,1.82-4.02.62-1.37,1.55-2.53,2.82-3.41l.07.03h0Z"/>
      <path class="st0" d="M88.99,25.82c-.19,1.53-.79,2.89-1.72,4.08-1.07,1.03-2.13,2.07-2.71,3.48-.58,1.16-1.27,2.87-1.79,4.03-.72,1.31-1.63,2.47-2.84,3.4l-.07-.03c.38-2.26,1.58-4.16,3.09-5.81l1.34-1.75c.98-1.17,1.4-2.59,1.82-4.02.62-1.37,1.55-2.53,2.82-3.41l.07.03h0Z"/>
      <path class="st0" d="M84.63,29.38c-.19,1.53-.79,2.89-1.72,4.08-1.07,1.03-2.13,2.07-2.71,3.48-.58,1.16-1.27,2.87-1.79,4.03-.72,1.31-1.63,2.47-2.84,3.4l-.07-.03c.38-2.26,1.58-4.16,3.09-5.81l1.34-1.75c.98-1.17,1.4-2.59,1.82-4.02.62-1.37,1.55-2.53,2.82-3.41l.07.03h0Z"/>
      <path class="st0" d="M85.13,25.05c-.19,1.53-.79,2.89-1.72,4.08-1.07,1.03-2.13,2.07-2.71,3.48-.58,1.16-1.27,2.87-1.79,4.03-.72,1.31-1.63,2.47-2.84,3.4l-.07-.03c.38-2.26,1.58-4.16,3.09-5.81l1.34-1.75c.98-1.17,1.4-2.59,1.82-4.02.62-1.37,1.55-2.53,2.82-3.41l.07.03h0Z"/>
    </g>
    <g>
      <path class="st0" d="M69.81,76.66c-.19,1.53-.79,2.89-1.72,4.08-1.07,1.03-2.13,2.07-2.71,3.48-.58,1.16-1.27,2.87-1.79,4.03-.72,1.31-1.63,2.47-2.84,3.4l-.07-.03c.38-2.26,1.58-4.16,3.09-5.81l1.34-1.75c.98-1.17,1.4-2.59,1.82-4.02.62-1.37,1.55-2.53,2.82-3.41l.07.03h0Z"/>
      <path class="st0" d="M70.65,71.89c-.19,1.53-.79,2.89-1.72,4.08-1.07,1.03-2.13,2.07-2.71,3.48-.58,1.16-1.27,2.87-1.79,4.03-.72,1.31-1.63,2.47-2.84,3.4l-.07-.03c.38-2.26,1.58-4.16,3.09-5.81l1.34-1.75c.98-1.17,1.4-2.59,1.82-4.02.62-1.37,1.55-2.53,2.82-3.41l.07.03h0Z"/>
      <path class="st0" d="M66.29,75.46c-.19,1.53-.79,2.89-1.72,4.08-1.07,1.03-2.13,2.07-2.71,3.48-.58,1.16-1.27,2.87-1.79,4.03-.72,1.31-1.63,2.47-2.84,3.4l-.07-.03c.38-2.26,1.58-4.16,3.09-5.81l1.34-1.75c.98-1.17,1.4-2.59,1.82-4.02.62-1.37,1.55-2.53,2.82-3.41l.07.03h0Z"/>
      <path class="st0" d="M66.78,71.12c-.19,1.53-.79,2.89-1.72,4.08-1.07,1.03-2.13,2.07-2.71,3.48-.58,1.16-1.27,2.87-1.79,4.03-.72,1.31-1.63,2.47-2.84,3.4l-.07-.03c.38-2.26,1.58-4.16,3.09-5.81l1.34-1.75c.98-1.17,1.4-2.59,1.82-4.02.62-1.37,1.55-2.53,2.82-3.41l.07.03h0Z"/>
    </g>
    <g>
      <path class="st0" d="M58.2,28.72c-.19,1.53-.79,2.89-1.72,4.08-1.07,1.03-2.13,2.07-2.71,3.48-.58,1.16-1.27,2.87-1.79,4.03-.72,1.31-1.63,2.47-2.84,3.4l-.07-.03c.38-2.26,1.58-4.16,3.09-5.81l1.34-1.75c.98-1.17,1.4-2.59,1.82-4.02.62-1.37,1.55-2.53,2.82-3.41l.07.03h0Z"/>
      <path class="st0" d="M59.04,23.94c-.19,1.53-.79,2.89-1.72,4.08-1.07,1.03-2.13,2.07-2.71,3.48-.58,1.16-1.27,2.87-1.79,4.03-.72,1.31-1.63,2.47-2.84,3.4l-.07-.03c.38-2.26,1.58-4.16,3.09-5.81l1.34-1.75c.98-1.17,1.4-2.59,1.82-4.02.62-1.37,1.55-2.53,2.82-3.41l.07.03h0Z"/>
      <path class="st0" d="M54.68,27.51c-.19,1.53-.79,2.89-1.72,4.08-1.07,1.03-2.13,2.07-2.71,3.48-.58,1.16-1.27,2.87-1.79,4.03-.72,1.31-1.63,2.47-2.84,3.4l-.07-.03c.38-2.26,1.58-4.16,3.09-5.81l1.34-1.75c.98-1.17,1.4-2.59,1.82-4.02.62-1.37,1.55-2.53,2.82-3.41l.07.03h0Z"/>
      <path class="st0" d="M55.18,23.18c-.19,1.53-.79,2.89-1.72,4.08-1.07,1.03-2.13,2.07-2.71,3.48-.58,1.16-1.27,2.87-1.79,4.03-.72,1.31-1.63,2.47-2.84,3.4l-.07-.03c.38-2.26,1.58-4.16,3.09-5.81l1.34-1.75c.98-1.17,1.4-2.59,1.82-4.02.62-1.37,1.55-2.53,2.82-3.41l.07.03h0Z"/>
    </g>
    <g>
      <path class="st0" d="M39.29,52.39c-.19,1.53-.79,2.89-1.72,4.08-1.07,1.03-2.13,2.07-2.71,3.48-.58,1.16-1.27,2.87-1.79,4.03-.72,1.31-1.63,2.47-2.84,3.4l-.07-.03c.38-2.26,1.58-4.16,3.09-5.81l1.34-1.75c.98-1.17,1.4-2.59,1.82-4.02.62-1.37,1.55-2.53,2.82-3.41l.07.03h0Z"/>
      <path class="st0" d="M40.13,47.62c-.19,1.53-.79,2.89-1.72,4.08-1.07,1.03-2.13,2.07-2.71,3.48-.58,1.16-1.27,2.87-1.79,4.03-.72,1.31-1.63,2.47-2.84,3.4l-.07-.03c.38-2.26,1.58-4.16,3.09-5.81l1.34-1.75c.98-1.17,1.4-2.59,1.82-4.02.62-1.37,1.55-2.53,2.82-3.41l.07.03h0Z"/>
      <path class="st0" d="M35.77,51.18c-.19,1.53-.79,2.89-1.72,4.08-1.07,1.03-2.13,2.07-2.71,3.48-.58,1.16-1.27,2.87-1.79,4.03-.72,1.31-1.63,2.47-2.84,3.4l-.07-.03c.38-2.26,1.58-4.16,3.09-5.81l1.34-1.75c.98-1.17,1.4-2.59,1.82-4.02.62-1.37,1.55-2.53,2.82-3.41l.07.03h0Z"/>
      <path class="st0" d="M36.26,46.86c-.19,1.53-.79,2.89-1.72,4.08-1.07,1.03-2.13,2.07-2.71,3.48-.58,1.16-1.27,2.87-1.79,4.03-.72,1.31-1.63,2.47-2.84,3.4l-.07-.03c.38-2.26,1.58-4.16,3.09-5.81l1.34-1.75c.98-1.17,1.4-2.59,1.82-4.02.62-1.37,1.55-2.53,2.82-3.41l.07.03h0Z"/>
    </g>
    <g>
      <path class="st0" d="M38.14,13.42c-.19,1.53-.79,2.89-1.72,4.08-1.07,1.03-2.13,2.07-2.71,3.48-.58,1.16-1.27,2.87-1.79,4.03-.72,1.31-1.63,2.47-2.84,3.4l-.07-.03c.38-2.26,1.58-4.16,3.09-5.81l1.34-1.75c.98-1.17,1.4-2.59,1.82-4.02.62-1.37,1.55-2.53,2.82-3.41l.07.03h0Z"/>
      <path class="st0" d="M38.98,8.65c-.19,1.53-.79,2.89-1.72,4.08-1.07,1.03-2.13,2.07-2.71,3.48-.58,1.16-1.27,2.87-1.79,4.03-.72,1.31-1.63,2.47-2.84,3.4l-.07-.03c.38-2.26,1.58-4.16,3.09-5.81l1.34-1.75c.98-1.17,1.4-2.59,1.82-4.02.62-1.37,1.55-2.53,2.82-3.41l.07.03h0Z"/>
      <path class="st0" d="M34.62,12.22c-.19,1.53-.79,2.89-1.72,4.08-1.07,1.03-2.13,2.07-2.71,3.48-.58,1.16-1.27,2.87-1.79,4.03-.72,1.31-1.63,2.47-2.84,3.4l-.07-.03c.38-2.26,1.58-4.16,3.09-5.81l1.34-1.75c.98-1.17,1.4-2.59,1.82-4.02.62-1.37,1.55-2.53,2.82-3.41l.07.03h0Z"/>
      <path class="st0" d="M35.1,7.88c-.19,1.53-.79,2.89-1.72,4.08-1.07,1.03-2.13,2.07-2.71,3.48-.58,1.16-1.27,2.87-1.79,4.03-.72,1.31-1.63,2.47-2.84,3.4l-.07-.03c.38-2.26,1.58-4.16,3.09-5.81l1.34-1.75c.98-1.17,1.4-2.59,1.82-4.02.62-1.37,1.55-2.53,2.82-3.41l.07.03h0Z"/>
    </g>
    <g>
      <path class="st0" d="M23.17,54.33c-.19,1.53-.79,2.89-1.72,4.08-1.07,1.03-2.13,2.07-2.71,3.48-.58,1.16-1.27,2.87-1.79,4.03-.72,1.31-1.63,2.47-2.84,3.4l-.07-.03c.38-2.26,1.58-4.16,3.09-5.81l1.34-1.75c.98-1.17,1.4-2.59,1.82-4.02.62-1.37,1.55-2.53,2.82-3.41l.07.03h0Z"/>
      <path class="st0" d="M24.02,49.55c-.19,1.53-.79,2.89-1.72,4.08-1.07,1.03-2.13,2.07-2.71,3.48-.58,1.16-1.27,2.87-1.79,4.03-.72,1.31-1.63,2.47-2.84,3.4l-.07-.03c.38-2.26,1.58-4.16,3.09-5.81l1.34-1.75c.98-1.17,1.4-2.59,1.82-4.02.62-1.37,1.55-2.53,2.82-3.41l.07.03h0Z"/>
      <path class="st0" d="M19.65,53.12c-.19,1.53-.79,2.89-1.72,4.08-1.07,1.03-2.13,2.07-2.71,3.48-.58,1.16-1.27,2.87-1.79,4.03-.72,1.31-1.63,2.47-2.84,3.4l-.07-.03c.38-2.26,1.58-4.16,3.09-5.81l1.34-1.75c.98-1.17,1.4-2.59,1.82-4.02.62-1.37,1.55-2.53,2.82-3.41l.07.03h0Z"/>
      <path class="st0" d="M20.14,48.78c-.19,1.53-.79,2.89-1.72,4.08-1.07,1.03-2.13,2.07-2.71,3.48-.58,1.16-1.27,2.87-1.79,4.03-.72,1.31-1.63,2.47-2.84,3.4l-.07-.03c.38-2.26,1.58-4.16,3.09-5.81l1.34-1.75c.98-1.17,1.4-2.59,1.82-4.02.62-1.37,1.55-2.53,2.82-3.41l.07.03h0Z"/>
    </g>
    <path class="st1" d="M78.63,68.22c.34-.84.61-2.18.72-3.76.5-6.83,2.51-11.94,4.92-11.94,2.79,0,5.05,6.85,5.05,15.3s-2.26,15.3-5.05,15.3c-.41,0-.82-.15-1.2-.44-.63-.47-1.26.4-1.76,2.02-.79,2.56-1.99,3.1-3.13-.29-.06-.19-.12-.43-.17-.7-1.06-6.19-.52-12.72.62-15.49Z"/>
    <path class="st1" d="M21.41,83.94c1.22.17,2.21.6,2.73,1.23,2.24,2.72,9.42,3.78,17.53,2.34,9.4-1.67,16.49-6.06,15.83-9.8s-8.83-5.42-18.23-3.75c-1.4.25-2.74.56-4.02.92-2.08.58-4.27.58-6.09.16-2.88-.66-6.94-.18-10.53,2-.2.12-.38.26-.51.41-3.08,3.37-.75,5.94,3.29,6.49Z"/>
  </g>
</svg>