<?xml version="1.0" encoding="UTF-8"?>
<svg id="Layer_1" xmlns="http://www.w3.org/2000/svg" xmlns:xlink="http://www.w3.org/1999/xlink" version="1.1" viewBox="0 0 100 100">
  <!-- Generator: Adobe Illustrator 29.8.2, SVG Export Plug-In . SVG Version: 2.1.1 Build 3)  -->
  <defs>
    <style>
      .st0 {
        fill: none;
      }

      .st1 {
        fill: #231f20;
      }

      .st1, .st2, .st3, .st4, .st5, .st6 {
        stroke: #231f20;
        stroke-linecap: round;
        stroke-linejoin: round;
      }

      .st2 {
        fill: #4f4f51;
      }

      .st3 {
        fill: #fff;
      }

      .st4 {
        fill: #3e3e3f;
      }

      .st5 {
        fill: #908c7e;
      }

      .st7 {
        clip-path: url(#clippath);
      }

      .st6 {
        fill: #593905;
      }
    </style>
    <clipPath id="clippath">
      <rect class="st0" x=".92" width="98.15" height="100"/>
    </clipPath>
  </defs>
  <g class="st7">
    <g>
      <polygon class="st1" points="33.74 17.06 24.31 30.29 12.64 64.25 15.17 68.72 22.83 69.15 28.65 71.56 45.23 73.13 60.34 70.09 67.43 65.6 70.92 45.09 33.74 17.06"/>
      <path class="st4" d="M26.08,124.83l-.81.93s-.42,1.74.11,1.98,5.14.74,6.64.43c1.66-.34,4.69-.7,5.2-2.49l.17.69s2.34-.87,2.81-1.56.55-1.16-.35-2.26-13.77,2.27-13.77,2.27Z"/>
      <path class="st5" d="M33.91,70.83s-2.04-1.63-2.2,1.69,0,21.39,0,21.39l4.99-18.06-2.79-5.02Z"/>
      <path class="st4" d="M33.44,98.68s-1.15,2.23-1.26,5.21c-.17,4.93,2.78,11.82,2.18,14.19-.96,3.8,3.79,1.5,4.27,0s-.93-7.09-.04-8.21c1-1.27,1.82-1.82,4.91-1.35,3.09.48,4.46,1.99,5.43,2.73,1.19.91,4.43,3.67,4.22,8.5-.05,1.06,2.06,1.92,4.07.4s-1.79-19.13-3.2-21.48-20.58,0-20.58,0Z"/>
      <path class="st5" d="M32.07,97.02l-.77,2.16s2.1,1.74,8.97,1.98,13.74-.87,13.74-.87l-1.41-3.96-19.86-1.74-.67,2.43Z"/>
      <path class="st5" d="M33.91,70.83s-.35,10.3-1.84,14.89-3.62,9.98-.69,11.09,21.07,3.8,23.21-.4-4.1-26.26-4.1-26.26l-16.57.68Z"/>
      <path class="st5" d="M51.89,70.15s10.3,11.61,8.87,19.77-3.88,14.97-6.18,13.86-5.54-1.29-4.1-3.49,3.35-9.27,3.53-13.27-5.53-16.05-5.53-16.05l3.41-.83Z"/>
      <path class="st5" d="M15.73,48.58s-11.61,20.2-5.86,22.29c5.75,2.09,6.92-1.58,11.96-.78s8.76,3.34,7.78.96-9.69-3.87-13.12-3.74,6.44-26.42,6.44-26.42l-7.19,7.7Z"/>
      <path class="st3" d="M61.18,34.86l5.39,4.75s1.92,8.26,1.17,14.64-9.52,13.12-14.28,12.25c-4.76-.87-9.98-1.39-9.98-1.39l-3.25,3.83-2.26-2.96-3.08,3.31-1.74-2.55-2.21,2.55-2.44-3.08-1.51,3.89-1.76-3.66s-.97-1.04-3.81-.41c-4.93,1.11,2.03-23.16,2.03-23.16l37.73-8.01Z"/>
      <path class="st1" d="M20.43,50.18l14.05,1.44s-3.13,6.69-8.24,6.16-5.8-7.6-5.8-7.6Z"/>
      <path class="st4" d="M3.03,58.97s23.04-16.67,31.86-16.65l-24.03,3.54-6.09,6.01-2.29,6.12.55.99Z"/>
      <path class="st2" d="M22.92,40.88s.35-17.3,17.53-20.32,25.42,12.77,26.12,19.04c0,0-9.15,10.56-29.19,10.74-20.04.17-14.46-9.46-14.46-9.46Z"/>
      <path class="st2" d="M3.03,58.97s4.15-12.78,10.29-12.78,11.41,9.95,14.56,10.78,20.84-7.95,20.84-7.95c0,0-13.16-8.14-20.8-8.14s-17.85,4.32-17.85,4.32c0,0-4.82,3.17-7.72,10.95-1.73,4.64.66,2.82.66,2.82Z"/>
      <path class="st1" d="M41.62,52.33l20.14-3.42s-1.57,8.47-8.94,9.52-11.2-6.09-11.2-6.09Z"/>
      <polygon class="st1" points="31.58 58.97 29.61 61.03 31.35 61.03 31.58 58.97"/>
      <polygon class="st1" points="33.38 58.53 32.86 61.03 35.12 61.03 33.38 58.53"/>
      <path class="st5" d="M26.01,23.06s5.22-11.94,16.25-13.68,32.41,6.75,37.75,10.81,17.92,30.57,18.22,34.49c.67,8.71-8.38,4.41-12.67,4s-12.65,7.94-17.64,9.45c-4.99,1.51-7.78,4.76-12.07,4.53s-14.51-1.74-15.9-.46-4.01.46-1.86-1.39c2.46-2.13,11.26-2.79,15.56-1.97,4.3.81,11.49,1.04,11.65-9.03s-31.99-36.72-31.99-36.72c0,0-8.68,5.01-10.37,17.82l-4.98,1.44s5.69-16.05,8.07-19.26Z"/>
      <path class="st3" d="M26.86,70.89l1.61-3.79,2.12,2.79,2.26-2.26,2.03,2.47,2.99-3.29,2.74,3.29s-1.64,2.32-7.76,2.45c-6.12.13-5.99-1.65-5.99-1.65Z"/>
      <path class="st6" d="M34.6,117.31l4.35.28s.91,3.21.9,4.96c0,0-5.08,3.5-7.87,3.81s-6.43.43-6.71-.6-.81-4.24,1.21-4.48,7.63-3.1,8.11-3.97Z"/>
      <path class="st6" d="M32.41,119.34s1.37.75,3.29.09c0,0,2.08-3.41,1.75-4.81,0,0-3.75.84-4.3-.38,0,0-1.57,2.27-.74,5.1Z"/>
      <path class="st4" d="M46.05,127.61l-.69,1.02s-.21,1.77.35,1.95,5.19.13,6.64-.36c1.6-.53,4.57-1.25,4.87-3.09l.25.67s2.22-1.14,2.6-1.88.41-1.22-.61-2.2-13.41,3.89-13.41,3.89Z"/>
      <path class="st6" d="M53.62,119.14l4.36-.23s1.29,3.08,1.48,4.82c0,0-4.63,4.08-7.37,4.71s-6.34,1.19-6.73.2-1.31-4.12.67-4.59,7.21-3.98,7.59-4.9Z"/>
      <path class="st6" d="M51.27,121.39s1.43.62,3.28-.23c0,0,1.74-3.6,1.28-4.95,0,0-3.65,1.2-4.31.04,0,0-1.34,2.41-.25,5.14Z"/>
      <path class="st5" d="M45.23,89.74h-1.07s-1.1,7.46,3.45,7.01c0,0-2.85-1.4-2.38-7.01Z"/>
    </g>
  </g>
</svg>